<svg width="172" height="148" viewBox="0 0 172 148" fill="none" xmlns="http://www.w3.org/2000/svg">
<path opacity="0.5" d="M169.768 78.5486C165.568 89.8486 148.468 101.149 148.468 110.749C148.468 115.349 143.568 125.749 134.168 134.449C127.268 140.749 117.968 146.149 106.468 147.549C100.768 148.249 94.5683 148.049 87.7683 146.449C48.4683 137.349 43.8683 120.249 20.0683 120.249C4.96828 120.249 12.0683 97.9486 13.0683 90.6486C14.2683 82.7486 15.2683 74.5486 13.6683 66.5486C11.7683 57.2486 1.06828 51.4486 0.0682794 42.5486C-0.631721 36.5486 4.16828 31.1486 9.06828 26.9486C20.9683 16.7486 36.3683 9.04864 53.0683 4.54864C82.7683 -3.55136 116.568 -1.35136 141.568 15.3486C171.168 35.3486 173.968 67.1486 169.768 78.5486Z" fill="#E9E9E9"/>
<g opacity="0.5">
<path opacity="0.5" d="M130.768 112.948C153.868 89.8483 153.868 52.3483 130.768 29.2483C107.668 6.14834 70.1682 6.14834 47.0682 29.2483C23.9682 52.3483 23.9682 89.8483 47.0682 112.948C70.1682 136.048 107.668 136.048 130.768 112.948Z" stroke="#403D56" stroke-linecap="round" stroke-linejoin="round" stroke-dasharray="4.09 4.09"/>
</g>
<path d="M13.5681 64.7486V80.8486C13.5681 81.8486 14.3681 82.7486 15.4681 82.7486H44.1681C45.1681 82.7486 46.0681 81.9486 46.0681 80.8486V64.7486C46.0681 63.7486 45.2681 62.8486 44.1681 62.8486H15.4681C14.3681 62.8486 13.5681 63.6486 13.5681 64.7486Z" fill="#EB535A"/>
<path d="M45.9681 67.0483H13.5681V71.8483H45.9681V67.0483Z" fill="#26438A"/>
<path d="M13.5681 71.8486V80.6486C13.5681 81.6486 14.3681 82.5486 15.4681 82.5486H21.1681L24.4681 71.8486H13.5681ZM15.4681 62.8486C14.4681 62.8486 13.5681 63.6486 13.5681 64.7486V67.1486H25.9681L27.2681 62.9486L15.4681 62.8486Z" fill="#F1606A"/>
<path d="M13.5681 67.0483H25.9681L24.4681 71.8483H13.5681V67.0483Z" fill="#204D9F"/>
<path d="M66.0681 45.9484C66.0681 45.9484 54.7681 41.8484 52.5681 47.0484C50.3681 52.2484 60.1681 56.5484 65.6681 57.9484L66.0681 45.9484Z" fill="#FDB377"/>
<path d="M134.168 134.449C127.268 140.749 117.968 146.149 106.468 147.549C103.568 141.449 99.1681 133.749 95.2681 133.149C88.7681 132.049 75.9681 120.249 75.9681 120.249C73.0681 84.5486 102.368 58.1486 103.868 59.1486C105.368 60.1486 126.368 71.4486 128.068 82.1486C129.668 92.8486 128.168 119.249 128.968 122.949C129.368 124.549 131.768 129.549 134.168 134.449Z" fill="#FDB377"/>
<path d="M108.368 120.249H69.5682C66.3682 120.249 63.8682 117.749 63.8682 114.549V27.5486C63.8682 24.3486 66.3682 21.8486 69.5682 21.8486H108.268C111.468 21.8486 113.968 24.3486 113.968 27.5486V114.549C113.968 117.749 111.368 120.249 108.368 120.249Z" fill="#4C495E"/>
<path d="M106.068 115.949H71.7681C68.5681 115.949 66.0681 113.449 66.0681 110.249V31.9485C66.0681 28.7485 68.5681 26.2485 71.7681 26.2485H106.068C109.168 26.2485 111.768 28.7485 111.768 31.9485V110.149C111.768 113.349 109.268 115.949 106.068 115.949Z" fill="white"/>
<path d="M70.1681 72.4482C70.1681 72.4482 69.8681 77.0482 66.6681 77.0482C63.4681 77.0482 59.6681 76.2482 57.8681 75.6482C56.0681 75.1482 53.3681 73.5482 54.3681 68.9482C55.3681 64.3482 59.0681 64.1482 62.6681 65.2482C66.4681 66.4482 71.0681 68.0482 70.1681 72.4482Z" fill="#FDB377"/>
<path d="M69.1683 82.1485C69.1683 82.1485 69.5683 77.7485 62.0683 77.7485C56.9683 77.7485 54.7683 78.7485 54.7683 82.8485C54.7683 88.1485 58.6683 87.9485 61.3683 87.9485C64.1683 88.0485 69.1683 87.0485 69.1683 82.1485Z" fill="#FDB377"/>
<path d="M68.5681 92.9485C68.5681 92.9485 68.7681 88.7485 63.5681 88.7485C58.3681 88.7485 55.8681 89.7485 56.5681 94.5485C56.9681 97.7485 59.2681 98.1485 61.0681 98.1485C62.7681 98.0485 68.5681 96.7485 68.5681 92.9485Z" fill="#FDB377"/>
<path opacity="0.15" d="M97.8682 36.0483H79.9682C79.0682 36.0483 78.3682 36.7483 78.3682 37.6483V44.0483C78.3682 44.9483 79.0682 45.6483 79.9682 45.6483H97.8682C98.7682 45.6483 99.4682 44.9483 99.4682 44.0483V37.6483C99.4682 36.7483 98.7682 36.0483 97.8682 36.0483Z" fill="#079D49"/>
<path opacity="0.35" d="M84.3683 40.6482H83.7683C83.5683 40.6482 83.3683 40.8482 83.3683 41.0482C83.3683 41.2482 83.5683 41.4482 83.7683 41.4482H83.9683C83.8683 42.0482 83.4683 42.5482 83.0683 42.8482C82.9683 42.9482 82.8683 42.9482 82.6683 42.9482C82.5683 42.8482 82.4683 42.8482 82.4683 42.6482V40.4482H82.7683C82.9683 40.4482 83.1683 40.2482 83.1683 40.0482C83.1683 39.8482 82.9683 39.6482 82.7683 39.6482H82.4683V38.3482C82.4683 38.1482 82.2683 37.9482 82.0683 37.9482H81.1683C80.9683 37.9482 80.7683 38.1482 80.7683 38.3482C80.7683 38.5482 80.9683 38.7482 81.1683 38.7482H81.5683V39.6482H80.8683C80.6683 39.6482 80.4683 39.8482 80.4683 40.0482C80.4683 40.2482 80.6683 40.4482 80.8683 40.4482H81.5683V42.6482C81.5683 43.0482 81.8683 43.4482 82.1683 43.7482C82.3683 43.8482 82.4683 43.8482 82.6683 43.8482C82.8683 43.8482 83.1683 43.7482 83.3683 43.6482C83.9683 43.2482 84.6683 42.6482 84.6683 41.0482C84.7683 40.8482 84.5683 40.6482 84.3683 40.6482Z" fill="#079C49"/>
<path opacity="0.35" d="M96.8683 40.1483H86.9683C86.6683 40.1483 86.4683 39.9483 86.4683 39.6483C86.4683 39.3483 86.6683 39.1483 86.9683 39.1483H96.8683C97.1683 39.1483 97.3683 39.3483 97.3683 39.6483C97.3683 39.9483 97.0683 40.1483 96.8683 40.1483Z" fill="#079C49"/>
<path opacity="0.35" d="M96.8683 42.7482H86.9683C86.6683 42.7482 86.4683 42.5482 86.4683 42.2482C86.4683 41.9482 86.6683 41.7482 86.9683 41.7482H96.8683C97.1683 41.7482 97.3683 41.9482 97.3683 42.2482C97.3683 42.5482 97.0683 42.7482 96.8683 42.7482Z" fill="#079C49"/>
<path d="M100.668 66.1485C100.668 72.7485 95.3683 78.0485 88.7683 78.0485C82.1683 78.0485 76.7683 72.7485 76.7683 66.1485C76.7683 59.5485 82.0683 54.2485 88.6683 54.2485C95.2683 54.2485 100.668 59.4485 100.668 66.1485Z" fill="#1C558A"/>
<path d="M86.8682 71.9484C86.4682 71.9484 86.1682 71.8484 85.8682 71.5484L81.9682 67.9484C81.3682 67.3484 81.2682 66.4484 81.8682 65.8484C82.4682 65.2484 83.3682 65.2484 83.9682 65.7484L86.8682 68.3484L93.5682 61.8484C94.1682 61.2484 95.0682 61.2484 95.6682 61.8484C96.2682 62.4484 96.2682 63.3484 95.6682 63.9484L87.9682 71.4484C87.6682 71.8484 87.2682 71.9484 86.8682 71.9484Z" fill="white"/>
<path d="M86.3682 69.3486C86.3682 69.3486 87.7682 67.3486 91.9682 70.0486C96.1682 72.7486 95.4682 73.8486 97.5682 74.6486C99.6682 75.4486 101.768 76.3486 102.568 76.6486C103.368 76.9486 106.168 80.8486 106.868 81.9486C107.568 82.9486 110.468 88.1486 114.868 89.9486C119.268 91.7486 118.368 130.349 114.168 128.749C110.068 127.149 104.268 128.449 102.868 115.449C101.568 102.449 102.268 99.2486 101.768 98.1486C101.268 96.9486 97.7682 92.5486 96.7682 90.3486C95.7682 88.1486 92.0682 86.8486 87.9682 79.5486C84.0682 71.9486 86.3682 69.3486 86.3682 69.3486Z" fill="#FDB377"/>
<path d="M136.768 82.5486V54.0486C136.768 52.5486 137.968 51.3486 139.468 51.3486H152.168C153.668 51.3486 154.868 52.5486 154.868 54.0486C154.868 60.4486 154.868 76.1486 154.868 82.5486C154.868 84.0486 153.668 85.2486 152.168 85.2486H139.468C137.968 85.2486 136.768 84.0486 136.768 82.5486Z" fill="#496A82"/>
<path d="M151.168 81.4486H140.468C139.468 81.4486 138.668 80.6486 138.668 79.6486V55.1486C138.668 54.1486 139.468 53.3486 140.468 53.3486H151.168C152.168 53.3486 152.968 54.1486 152.968 55.1486V79.6486C152.968 80.6486 152.168 81.4486 151.168 81.4486Z" fill="white"/>
<path d="M146.968 83.7486H144.568C144.268 83.7486 143.968 83.4486 143.968 83.1486C143.968 82.8486 144.268 82.5486 144.568 82.5486H146.968C147.268 82.5486 147.568 82.8486 147.568 83.1486C147.568 83.4486 147.268 83.7486 146.968 83.7486Z" fill="white"/>
<path d="M148.068 69.9484C147.168 69.9484 146.268 69.9484 145.268 69.9484C144.768 69.9484 144.468 69.6484 144.368 69.2484C144.268 68.7484 144.668 68.3484 145.168 68.3484C145.668 68.3484 146.268 68.3484 146.768 68.3484C148.068 68.3484 149.168 68.3484 150.468 68.3484C150.768 68.3484 151.068 68.2484 151.168 67.9484C151.268 67.6484 151.268 67.4484 151.168 67.1484C150.968 66.8484 150.768 66.7484 150.468 66.7484C149.268 66.7484 148.368 66.7484 147.268 66.7484C146.668 66.7484 146.268 66.0484 146.568 65.5484C146.768 65.2484 146.968 65.1484 147.268 65.1484C148.068 65.1484 148.668 65.1484 149.468 65.1484C149.868 65.1484 150.168 64.8484 150.268 64.4484C150.268 64.0484 150.068 63.6484 149.668 63.5484C149.568 63.5484 149.468 63.5484 149.368 63.5484C148.568 63.5484 148.068 63.5484 147.268 63.5484C146.868 63.5484 146.568 63.2484 146.468 62.9484C146.368 62.5484 146.568 62.2484 146.868 62.0484C147.068 61.9484 147.168 61.9484 147.368 61.9484C149.068 61.9484 150.768 61.9484 152.468 61.9484C152.668 61.9484 152.768 61.9484 152.868 61.7484C155.068 59.7484 157.568 59.1484 160.368 60.0484C163.168 60.9484 164.868 62.9484 165.368 65.8484C166.268 70.2484 162.968 74.4484 158.468 74.7484C156.568 74.8484 154.768 74.3484 153.268 73.1484C153.168 73.0484 153.068 73.0484 152.868 73.0484C151.468 73.0484 149.968 73.0484 148.568 73.0484C147.968 73.0484 147.568 72.5484 147.768 72.0484C147.868 71.7484 148.168 71.5484 148.568 71.5484C149.268 71.5484 149.668 71.5484 150.368 71.5484C150.768 71.5484 151.068 71.3484 151.168 71.0484C151.268 70.7484 151.168 70.3484 150.868 70.1484C150.668 70.0484 150.468 69.9484 150.268 69.9484C149.668 69.9484 148.968 69.9484 148.068 69.9484Z" fill="#F4B22F"/>
<path d="M143.068 63.5484C142.468 63.5484 141.868 63.5484 141.268 63.5484C140.768 63.5484 140.368 63.2484 140.368 62.7484C140.368 62.2484 140.668 61.9484 141.268 61.9484C142.468 61.9484 143.668 61.9484 144.868 61.9484C145.368 61.9484 145.668 62.2484 145.668 62.7484C145.668 63.2484 145.268 63.5484 144.868 63.5484C144.368 63.5484 143.768 63.5484 143.068 63.5484Z" fill="#F4B22F"/>
<path d="M145.368 73.0484C145.068 73.0484 144.768 73.0484 144.468 73.0484C143.968 73.0484 143.668 72.7484 143.668 72.2484C143.668 71.8484 143.968 71.4484 144.468 71.4484C145.068 71.4484 145.668 71.4484 146.268 71.4484C146.768 71.4484 147.068 71.7484 147.068 72.2484C147.068 72.7484 146.668 73.0484 146.268 73.0484C145.968 73.0484 145.668 73.0484 145.368 73.0484Z" fill="#F4B22F"/>
<path d="M144.068 66.7484C143.868 66.7484 143.768 66.7484 143.568 66.7484C143.168 66.7484 142.868 66.3484 142.768 65.9484C142.768 65.5484 143.068 65.1484 143.468 65.1484C143.868 65.1484 144.168 65.1484 144.568 65.1484C144.968 65.1484 145.268 65.5484 145.268 65.9484C145.268 66.3484 144.968 66.6484 144.568 66.7484C144.468 66.7484 144.268 66.7484 144.068 66.7484Z" fill="#F4B22F"/>
<path d="M158.268 61.5484C155.068 61.5484 152.468 64.1484 152.468 67.3484C152.468 70.5484 155.068 73.1484 158.268 73.1484C161.468 73.1484 164.068 70.5484 164.068 67.3484C164.068 64.1484 161.468 61.5484 158.268 61.5484Z" fill="white"/>
<path d="M161.568 66.8484V65.9484H158.268V64.8484C158.268 63.9484 157.568 63.1484 156.568 63.1484C156.068 63.1484 155.468 63.3484 155.068 63.6484L154.768 63.8484L155.468 64.9484L155.568 64.8484C155.868 64.5484 156.368 64.7484 156.368 65.1484V65.8484H155.168V66.7484H156.368V68.6484V69.3484C156.368 70.5484 157.368 71.5484 158.568 71.5484H158.868C160.068 71.5484 161.068 70.5484 161.068 69.3484C161.068 68.4484 160.268 67.7484 159.468 67.1484L158.668 68.0484L159.268 68.6484C159.468 68.8484 159.568 69.0484 159.568 69.3484C159.568 69.7484 159.168 70.0484 158.868 70.0484C158.468 70.0484 158.168 69.6484 158.168 69.3484V66.7484L161.568 66.8484Z" fill="#F4B22F"/>
</svg>
