<svg width="159" height="183" viewBox="0 0 159 183" fill="none" xmlns="http://www.w3.org/2000/svg">
<path opacity="0.1" d="M69.0972 181.551C107.258 181.551 138.194 171.758 138.194 159.679C138.194 147.599 107.258 137.807 69.0972 137.807C30.9359 137.807 0 147.599 0 159.679C0 171.758 30.9359 181.551 69.0972 181.551Z" fill="#231F20"/>
<path opacity="0.1" d="M50.7919 146.542L102.612 150.694L157.092 127.6C160.054 126.346 159.416 121.968 156.216 121.622L117.586 117.405L50.7919 146.542Z" fill="#252223"/>
<path d="M132.356 0.120561C135.967 0.855753 141.546 4.56414 141.546 10.5214L137.459 34.1664L138.572 34.4799L135.783 51.6164L134.702 51.2704L120.16 141.515C119.133 147.916 114.03 152.467 108.246 152.143L56.0256 149.256C55.5282 149.224 55.0201 149.148 54.5336 149.029C49.8305 147.84 46.8789 142.596 47.9385 137.309L72.3728 9.46181C73.4864 3.92626 77.8543 0.0016327 82.9033 0.0016327H131.112C131.534 -0.00917893 131.945 0.0340683 132.356 0.120561Z" fill="#292942"/>
<path d="M132.356 0.120806C135.967 0.855997 138.367 4.73737 137.719 8.79174L133.654 34.0261L134.767 34.3396L131.978 51.4761L130.897 51.1301L116.333 141.515C115.306 147.916 110.203 152.468 104.419 152.143L52.1987 149.257C51.7014 149.224 51.1932 149.148 50.7067 149.029C46.0036 147.84 43.0521 142.597 44.1116 137.31L68.5459 9.46206C69.6595 3.9265 74.0274 0.00187684 79.0764 0.00187684H131.113C131.535 -0.00893479 131.945 0.0343124 132.356 0.120806Z" fill="#3F3D56"/>
<path d="M85.7687 2.75861C85.92 4.94256 87.5418 6.62918 89.4987 6.62918H116.203C117.187 6.62918 118.052 5.88318 118.312 4.81283C118.604 3.60192 119.587 2.75861 120.701 2.75861H127.556C127.869 2.75861 128.183 2.79105 128.485 2.85592C131.34 3.42893 133.232 6.49944 132.713 9.69969L111.684 140.769C111.144 144.132 108.441 146.51 105.403 146.283L53.3446 142.456C53.1175 142.434 52.8905 142.402 52.6634 142.348C50.166 141.731 48.5875 138.974 49.128 136.163L72.546 9.3429C73.292 5.49396 76.3301 2.7478 79.8331 2.7478H85.7687V2.75861Z" fill="white"/>
<path opacity="0.2" d="M85.7687 2.75861C85.92 4.94256 87.5418 6.62918 89.4987 6.62918H116.203C117.187 6.62918 118.052 5.88318 118.312 4.81283C118.604 3.60192 119.587 2.75861 120.701 2.75861H127.556C127.869 2.75861 128.183 2.79105 128.485 2.85592C131.34 3.42893 133.232 6.49944 132.713 9.69969L111.684 140.769C111.144 144.132 108.441 146.51 105.403 146.283L53.3446 142.456C53.1175 142.434 52.8905 142.402 52.6634 142.348C50.166 141.731 48.5875 138.974 49.128 136.163L72.546 9.3429C73.292 5.49396 76.3301 2.7478 79.8331 2.7478H85.7687V2.75861Z" fill="#F1F2F2"/>
<path d="M135.783 51.6054L131.977 51.4649L134.767 34.3392L138.573 34.4798L135.783 51.6054Z" fill="#292942"/>
<path d="M137.459 34.1663L138.572 34.4798L134.767 34.3393L133.653 34.0258L137.459 34.1663Z" fill="#3F3D56"/>
<path opacity="0.1" d="M128.734 170.155C130.812 170.155 132.496 169.923 132.496 169.637C132.496 169.35 130.812 169.118 128.734 169.118C126.656 169.118 124.972 169.35 124.972 169.637C124.972 169.923 126.656 170.155 128.734 170.155Z" fill="#231F20"/>
<path d="M128.809 169.518C128.809 169.518 123.533 152.23 129.631 145.31C134.194 140.131 139.372 140.748 141.686 141.396C142.897 141.721 143.913 142.553 144.454 143.689C145.265 145.44 145.113 148.273 139.394 151.592C129.815 157.138 129.22 164.75 129.22 164.75L128.809 169.518Z" fill="#006747"/>
<path d="M128.68 169.55C126.875 158.738 130.27 152.295 133.437 148.792C136.876 144.986 140.8 143.732 140.833 143.721L140.919 143.991C140.876 144.002 137.016 145.246 133.632 148.997C130.507 152.457 127.167 158.825 128.951 169.518L128.68 169.55Z" fill="white"/>
<path d="M133.394 149.246L133.123 149.159C133.761 147.116 131.729 145.721 131.707 145.699L131.858 145.472C131.891 145.494 134.086 146.997 133.394 149.246Z" fill="white"/>
<path d="M130.409 153.916L130.15 153.808C130.29 153.462 130.539 153.213 130.874 153.084C131.815 152.727 133.166 153.408 133.231 153.44L133.101 153.689C133.09 153.678 131.793 153.04 130.971 153.343C130.701 153.451 130.517 153.635 130.409 153.916Z" fill="white"/>
<path d="M129.101 156.684C129.101 156.576 129.058 156.479 128.971 156.403C128.636 156.111 127.793 156.1 127.501 156.122L127.479 155.841C127.523 155.841 128.669 155.754 129.155 156.187C129.296 156.317 129.372 156.479 129.382 156.662L129.101 156.684Z" fill="white"/>
<path d="M128.592 169.658C128.592 169.658 134.766 157.095 136.463 157.365C137.263 157.495 137.642 158.284 137.804 159.084C138.009 160.111 137.89 161.182 137.469 162.144C136.604 164.155 134.247 167.982 128.592 169.658Z" fill="#006747"/>
<path d="M128.734 169.701L128.648 169.442C129.643 169.118 134.519 162.285 136.313 159.679L136.54 159.841C136.27 160.22 130.01 169.28 128.734 169.701Z" fill="white"/>
<path d="M135.19 164.53L132.824 164.631L132.836 164.912L135.202 164.811L135.19 164.53Z" fill="white"/>
<path d="M133.895 161.879L133.62 161.936L133.877 163.175L134.153 163.118L133.895 161.879Z" fill="white"/>
<path d="M131.144 166.804L131.101 165.679L131.382 165.668L131.426 166.793L131.144 166.804Z" fill="white"/>
<path d="M128.777 169.658C128.777 169.658 122.603 157.095 120.906 157.365C120.106 157.495 119.728 158.284 119.565 159.084C119.36 160.111 119.479 161.182 119.901 162.144C120.776 164.155 123.133 167.982 128.777 169.658Z" fill="#006747"/>
<path d="M128.647 169.701C127.371 169.28 121.111 160.22 120.841 159.841L121.068 159.679C122.863 162.285 127.739 169.107 128.733 169.442L128.647 169.701Z" fill="white"/>
<path d="M121.869 161.084H120.355V161.365H121.869V161.084Z" fill="white"/>
<path d="M122.185 164.522L122.173 164.803L124.539 164.904L124.551 164.623L122.185 164.522Z" fill="white"/>
<path d="M123.483 161.885L123.225 163.124L123.501 163.181L123.758 161.942L123.483 161.885Z" fill="white"/>
<path d="M126.225 166.804L125.955 166.793L125.998 165.668L126.279 165.679L126.225 166.804Z" fill="white"/>
<path opacity="0.1" d="M110.625 164.447C113.563 164.447 115.944 164.118 115.944 163.712C115.944 163.306 113.563 162.976 110.625 162.976C107.687 162.976 105.306 163.306 105.306 163.712C105.306 164.118 107.687 164.447 110.625 164.447Z" fill="#231F20"/>
<path opacity="0.1" d="M121.643 171.496C123.733 171.496 125.427 171.264 125.427 170.977C125.427 170.69 123.733 170.458 121.643 170.458C119.553 170.458 117.859 170.69 117.859 170.977C117.859 171.264 119.553 171.496 121.643 171.496Z" fill="#231F20"/>
<path opacity="0.1" d="M144.108 171.582C146.198 171.582 147.892 171.35 147.892 171.063C147.892 170.777 146.198 170.544 144.108 170.544C142.019 170.544 140.324 170.777 140.324 171.063C140.324 171.35 142.019 171.582 144.108 171.582Z" fill="#231F20"/>
<path d="M146.109 169.971C146.347 169.777 146.52 169.517 146.606 169.225C146.682 168.923 146.541 168.598 146.26 168.458C145.936 168.339 145.601 168.555 145.341 168.782C145.082 169.009 144.79 169.258 144.444 169.215C144.801 168.89 144.963 168.414 144.866 167.939C144.855 167.841 144.812 167.755 144.747 167.679C144.574 167.485 144.249 167.571 144.033 167.723C143.363 168.198 143.168 169.117 143.168 169.939C143.136 169.636 143.136 169.333 143.168 169.02C143.19 168.706 143.071 168.404 142.822 168.209C142.66 168.123 142.487 168.079 142.303 168.09C142.001 168.047 141.687 168.133 141.449 168.328C141.19 168.598 141.255 169.063 141.482 169.366C141.73 169.647 142.033 169.885 142.357 170.069C142.606 170.22 142.822 170.425 142.984 170.663C143.006 170.696 143.017 170.728 143.028 170.771H144.931C145.374 170.555 145.763 170.285 146.109 169.971Z" fill="#006747"/>
<path d="M112.787 162.814C113.025 162.62 113.198 162.36 113.284 162.068C113.36 161.765 113.219 161.441 112.938 161.301C112.614 161.182 112.279 161.398 112.019 161.625C111.76 161.852 111.468 162.101 111.122 162.057C111.479 161.733 111.641 161.257 111.544 160.782C111.533 160.684 111.49 160.598 111.425 160.522C111.252 160.327 110.927 160.414 110.711 160.565C110.041 161.041 109.846 161.96 109.846 162.782C109.814 162.479 109.803 162.176 109.835 161.874C109.857 161.56 109.738 161.257 109.489 161.063C109.327 160.976 109.154 160.933 108.97 160.944C108.668 160.9 108.354 160.987 108.116 161.182C107.889 161.495 107.9 161.928 108.149 162.219C108.397 162.501 108.7 162.738 109.025 162.922C109.273 163.074 109.489 163.279 109.652 163.528C109.673 163.56 109.684 163.593 109.695 163.636H111.598C112.041 163.409 112.43 163.138 112.787 162.814Z" fill="#006747"/>
<path d="M123.891 169.971C124.129 169.777 124.302 169.517 124.388 169.225C124.464 168.923 124.324 168.598 124.042 168.458C123.718 168.339 123.383 168.555 123.123 168.782C122.864 169.009 122.572 169.258 122.226 169.215C122.583 168.89 122.745 168.414 122.648 167.939C122.637 167.841 122.594 167.755 122.529 167.679C122.356 167.485 122.031 167.571 121.815 167.723C121.145 168.198 120.95 169.117 120.95 169.939C120.918 169.636 120.918 169.333 120.95 169.02C120.972 168.706 120.853 168.404 120.604 168.209C120.442 168.123 120.269 168.079 120.085 168.09C119.783 168.047 119.469 168.133 119.231 168.328C118.972 168.598 119.037 169.063 119.264 169.366C119.512 169.647 119.815 169.885 120.139 170.069C120.388 170.22 120.604 170.425 120.767 170.663C120.788 170.696 120.799 170.728 120.81 170.771H122.713C123.156 170.555 123.545 170.285 123.891 169.971Z" fill="#006747"/>
<path opacity="0.1" d="M109.922 97.3714L65.1944 97.0254L65.7674 93.8684L110.495 94.2144L109.922 97.3714Z" fill="#006747"/>
<path opacity="0.1" d="M111.079 91.0682L66.3408 90.7222L66.9246 87.5652L111.652 87.9112L111.079 91.0682Z" fill="#006747"/>
<path opacity="0.1" d="M97.6507 105.026L63.7887 104.766L64.3617 101.609L98.2238 101.869L97.6507 105.026Z" fill="#006747"/>
<path opacity="0.1" d="M96.6128 110.713L62.7508 110.443L63.3238 107.286L97.1859 107.556L96.6128 110.713Z" fill="#006747"/>
<path opacity="0.1" d="M113.09 81.0781H67.6483C64.8914 81.0781 63.0534 78.8293 63.5507 76.0723L71.5405 32.0366C72.0379 29.2796 74.7083 27.0308 77.4545 27.0308H122.907C125.664 27.0308 127.502 29.2796 127.004 32.0366L119.014 76.0723C118.506 78.8293 115.847 81.0781 113.09 81.0781Z" fill="#006747"/>
<path d="M120.182 69.6609C117.263 70.1907 114.96 70.7096 116.279 71.4124C118.895 72.8071 123.955 75.3478 96.288 75.3478C68.621 75.3478 106.245 60.8386 106.245 60.8386L122.69 55.822L120.182 69.6609Z" fill="#DA924E"/>
<g opacity="0.15">
<path opacity="0.15" d="M100.278 74.7316L100.57 74.8938L100.873 74.6559L100.689 74.4181L100.278 74.7316Z" fill="#231F20"/>
<path opacity="0.15" d="M102.083 72.9263H102.375L102.408 72.7749L102.235 72.6235L102.083 72.9263Z" fill="#231F20"/>
<path opacity="0.15" d="M101.542 72.007L101.25 71.8665L101.207 72.1043L101.304 72.2665L101.542 72.007Z" fill="#231F20"/>
<path opacity="0.15" d="M99.6512 73.6612L99.7918 73.8558L100.116 73.7585L100.246 73.5639L99.8675 73.4558L99.6512 73.6612Z" fill="#231F20"/>
<path opacity="0.15" d="M103.716 72.5693L103.37 72.6558L103.381 72.9802L103.867 72.8721L103.716 72.5693Z" fill="#231F20"/>
<path opacity="0.15" d="M101.304 73.5857L101.207 73.7154L101.272 73.9425L101.542 73.7262L101.304 73.5857Z" fill="#231F20"/>
<path opacity="0.15" d="M99.5207 74.3208L99.7369 74.4614L99.9207 74.3425L99.8558 74.1262L99.5207 74.3208Z" fill="#231F20"/>
<path opacity="0.15" d="M101.5 74.8724L101.651 75.1427L101.802 74.9373L101.813 74.7427L101.5 74.8724Z" fill="#231F20"/>
<path opacity="0.15" d="M103.5 73.8883L103.295 74.0072L103.544 74.2883L103.814 74.2127L103.803 73.9424L103.5 73.8883Z" fill="#231F20"/>
<path opacity="0.15" d="M105.641 69.1963L105.37 69.0125L105.057 69.2287L105.208 69.4882L105.641 69.1963Z" fill="#231F20"/>
<path opacity="0.15" d="M102.235 72.2124L102.364 72.0394L102.202 71.8881L102.04 72.0827L101.91 72.0286L101.878 72.2124L101.954 72.3313L102.072 72.2016L102.235 72.2124Z" fill="#231F20"/>
<path opacity="0.15" d="M104.375 71.6397V71.6181L104.289 71.51L104.127 71.7262L104.235 71.7587L104.148 71.8452L104.408 72.0181L104.473 71.7803L104.408 71.6073L104.375 71.6397Z" fill="#231F20"/>
<path opacity="0.15" d="M107.943 72.0831L108.322 72.3101L108.43 71.9533L108.149 71.7911L107.943 72.0831Z" fill="#231F20"/>
<path opacity="0.15" d="M104.635 70.9584L104.829 70.9692L104.937 70.7422L104.591 70.6881L104.635 70.9584Z" fill="#231F20"/>
<path opacity="0.15" d="M105.359 72.8181L105.607 72.7424L105.748 72.5802L105.456 72.4829L105.359 72.8181Z" fill="#231F20"/>
<path opacity="0.15" d="M107.176 72.926L107.133 73.3369L107.36 73.4342L107.533 73.2071L107.392 72.9476L107.176 72.926Z" fill="#231F20"/>
<path opacity="0.15" d="M104.883 71.0989L105.175 71.2611L105.478 71.0124L105.294 70.7745L104.883 71.0989Z" fill="#231F20"/>
<path opacity="0.15" d="M106.689 69.2825H106.981L107.014 69.1311L106.841 68.9906L106.689 69.2825Z" fill="#231F20"/>
<path opacity="0.15" d="M107.933 68.0068L108.106 68.1474L108.322 67.8339H108.041L107.933 68.0068Z" fill="#231F20"/>
<path opacity="0.15" d="M106.149 68.3638L105.857 68.234L105.814 68.4719L105.911 68.6232L106.149 68.3638Z" fill="#231F20"/>
<path opacity="0.15" d="M104.408 70.2232L104.721 70.1258L104.851 69.9204L104.548 69.8448L104.797 69.5853L104.559 69.4988L104.353 69.7042L104.472 69.8231L104.256 70.0177L104.408 70.2232Z" fill="#231F20"/>
<path opacity="0.15" d="M107.976 69.0231L107.997 69.3367L108.473 69.2286L108.322 68.9366L107.976 69.0231Z" fill="#231F20"/>
<path opacity="0.15" d="M106.149 70.0935L105.911 69.9421L105.814 70.0719L105.846 70.1692L105.706 70.2016L105.554 70.3962L105.922 70.526L106.149 70.3422L106.052 70.1692L106.149 70.0935Z" fill="#231F20"/>
<path opacity="0.15" d="M104.343 70.8178L104.527 70.7097L104.462 70.4827L104.127 70.6881L104.343 70.8178Z" fill="#231F20"/>
<path opacity="0.15" d="M106.419 71.0989L106.106 71.2394L106.117 71.2611L106.074 71.2827L105.955 71.5205L106.268 71.5097V71.4989L106.419 71.3043V71.0989Z" fill="#231F20"/>
<path opacity="0.15" d="M108.408 70.3097L108.105 70.2449L107.9 70.3746L108.149 70.6557L108.419 70.5692L108.408 70.3097Z" fill="#231F20"/>
<path opacity="0.15" d="M109.662 65.5849L109.813 65.8552L110.257 65.5633L109.975 65.3795L109.662 65.5849Z" fill="#231F20"/>
<path opacity="0.15" d="M108.311 67.2285L108.019 67.2069L107.976 67.3583L108.138 67.5204L108.311 67.2285Z" fill="#231F20"/>
<path opacity="0.15" d="M106.97 68.4069L106.808 68.2448L106.57 68.5475L106.84 68.5799L106.97 68.4069Z" fill="#231F20"/>
<path opacity="0.15" d="M109.014 68.3745L109.079 68.1367L109.014 67.9745L108.754 68.2123L109.014 68.3745Z" fill="#231F20"/>
<path opacity="0.15" d="M110.754 66.7095L110.635 66.4933L110.321 66.569L110.159 66.7528L110.527 66.8933L110.754 66.7095Z" fill="#231F20"/>
<path opacity="0.15" d="M112.549 68.4501L112.927 68.6772L113.036 68.3204L112.754 68.1582L112.549 68.4501Z" fill="#231F20"/>
<path opacity="0.15" d="M109.241 67.3149L109.436 67.3365L109.544 67.0987L109.198 67.0554L109.241 67.3149Z" fill="#231F20"/>
<path opacity="0.15" d="M109.965 69.1853L110.214 69.1096L110.354 68.9367L110.063 68.8394L109.965 69.1853Z" fill="#231F20"/>
<path opacity="0.15" d="M111.781 69.2936L111.738 69.6936L111.976 69.8017L112.138 69.5639L111.997 69.3152L111.781 69.2936Z" fill="#231F20"/>
<path opacity="0.15" d="M112.311 65.6932L111.998 65.9311L112.225 66.0608L112.452 65.877L112.311 65.6932Z" fill="#231F20"/>
<path opacity="0.15" d="M113.62 64.4389L113.49 64.3308L113.382 64.5579H113.609L113.62 64.4389Z" fill="#231F20"/>
<path opacity="0.15" d="M114.462 63.693L114.624 63.4443H114.408L114.321 63.5849L114.462 63.693Z" fill="#231F20"/>
<path opacity="0.15" d="M112.971 63.8551L112.744 63.7469L112.711 63.9307L112.787 64.0497L112.971 63.8551Z" fill="#231F20"/>
<path opacity="0.15" d="M111.532 65.1201L111.64 65.2715L111.878 65.1958L111.986 65.0444L111.694 64.9688L111.532 65.1201Z" fill="#231F20"/>
<path opacity="0.15" d="M114.744 64.5146L114.625 64.2876L114.355 64.3525L114.366 64.4606L114.301 64.3849L113.987 64.6444L114.225 64.7525L114.409 64.5903L114.744 64.5146Z" fill="#231F20"/>
<path opacity="0.15" d="M112.711 65.1527L112.754 65.3257L112.971 65.1635L112.787 65.0554L112.711 65.1527Z" fill="#231F20"/>
<path opacity="0.15" d="M113.047 66.2446L113.166 66.0933L113.177 65.9419L112.939 66.0392L113.047 66.2446Z" fill="#231F20"/>
<path opacity="0.15" d="M114.463 65.2933L114.3 65.3798L114.495 65.5961L114.7 65.5312L114.69 65.3366L114.463 65.2933Z" fill="#231F20"/>
<path opacity="0.15" d="M115.642 61.7362L115.761 61.9416L116.096 61.7253L115.879 61.574L115.642 61.7362Z" fill="#231F20"/>
<path opacity="0.15" d="M114.613 62.9901L114.397 62.9685L114.365 63.0874L114.473 63.2064L114.613 62.9901Z" fill="#231F20"/>
<path opacity="0.15" d="M114.948 63.7363L115.154 63.866L115.197 63.6822L115.143 63.5525L114.948 63.7363Z" fill="#231F20"/>
<path opacity="0.15" d="M116.138 62.482L116.03 62.6334L116.3 62.7307L116.473 62.5902L116.386 62.428L116.138 62.482Z" fill="#231F20"/>
<path opacity="0.15" d="M117.836 63.9203L118.128 64.0933L118.214 63.8122L117.998 63.6932L117.836 63.9203Z" fill="#231F20"/>
<path opacity="0.15" d="M116.42 63.3037L116.322 63.4875H116.56L116.528 63.2712L116.42 63.3037Z" fill="#231F20"/>
<path opacity="0.15" d="M115.879 64.4824L116.063 64.4175L116.171 64.2878L115.944 64.2229L115.879 64.4824Z" fill="#231F20"/>
<path opacity="0.15" d="M117.252 64.5579L117.231 64.8714L117.404 64.9471L117.533 64.7741L117.425 64.5795L117.252 64.5579Z" fill="#231F20"/>
<path opacity="0.15" d="M121.177 57.9089L121.35 58.0711L121.631 57.79L121.382 57.7035L121.177 57.9089Z" fill="#231F20"/>
<path opacity="0.15" d="M120.203 59.455L120.355 59.5523L120.441 59.3145L120.203 59.3469V59.455Z" fill="#231F20"/>
<path opacity="0.15" d="M119.61 60.3846L119.469 60.2981L119.329 60.5576L119.545 60.5251L119.61 60.3846Z" fill="#231F20"/>
<path opacity="0.15" d="M121.112 59.7144L120.961 59.9306L121.188 59.9955L121.199 59.8225L121.112 59.7144Z" fill="#231F20"/>
<path opacity="0.15" d="M121.955 58.3738L121.728 58.4819L121.642 58.6441L121.944 58.6765L122.096 58.5035L121.955 58.3738Z" fill="#231F20"/>
<path opacity="0.15" d="M119.058 59.5411L119.209 59.7465L119.469 59.6492L119.415 59.4114L119.058 59.5411Z" fill="#231F20"/>
<path opacity="0.15" d="M120.765 58.6655L120.96 58.7412L121.014 58.6439L120.949 58.4817L120.765 58.6655Z" fill="#231F20"/>
<path opacity="0.15" d="M122.259 58.0061L122.075 57.9304L121.945 58.0385L122.021 58.1899L122.259 58.0061Z" fill="#231F20"/>
<path opacity="0.15" d="M120.518 57.6277L120.42 57.8007L120.431 57.952L120.669 57.8223L120.518 57.6277Z" fill="#231F20"/>
<path opacity="0.15" d="M119.23 58.7628L119.371 58.6439L119.155 58.4601L118.949 58.5574L118.993 58.752L119.23 58.7628Z" fill="#231F20"/>
<path opacity="0.15" d="M118.095 62.4279L118.322 62.536L118.549 62.3523L118.398 62.1685L118.095 62.4279Z" fill="#231F20"/>
<path opacity="0.15" d="M119.512 60.7631L119.404 61.0009L119.641 60.9901L119.652 60.8712L119.512 60.7631Z" fill="#231F20"/>
<path opacity="0.15" d="M120.311 59.9847L120.452 60.082L120.603 59.8334L120.397 59.8442L120.311 59.9847Z" fill="#231F20"/>
<path opacity="0.15" d="M118.711 60.4171L118.787 60.5252L118.96 60.3306L118.733 60.2333L118.711 60.4171Z" fill="#231F20"/>
<path opacity="0.15" d="M118.03 61.5416L117.728 61.4875L117.576 61.6389L117.695 61.7903L117.933 61.7038L118.03 61.5416Z" fill="#231F20"/>
<path opacity="0.15" d="M115.868 60.7955L115.998 60.5576L115.673 60.4387L115.63 60.709L115.868 60.7955Z" fill="#231F20"/>
<path opacity="0.15" d="M117.425 61.0009L117.533 60.9469L117.598 60.7631L117.36 60.7955L117.425 61.0009Z" fill="#231F20"/>
<path opacity="0.15" d="M118.744 61.2171L118.679 61.0333L118.528 61.0441L118.474 61.2279L118.744 61.2171Z" fill="#231F20"/>
<path opacity="0.15" d="M117.911 59.7467L117.727 59.8224L117.641 59.9629L117.879 60.0062L117.911 59.7467Z" fill="#231F20"/>
<path opacity="0.15" d="M116.409 59.8657L116.323 60.0063L116.334 60.1576L116.571 60.0279L116.431 59.8657H116.496L116.474 59.563L116.29 59.5089L116.182 59.6927L116.323 59.8657H116.409Z" fill="#231F20"/>
<path opacity="0.15" d="M117.522 59.9956L117.284 59.9091L117.079 60.1145L117.241 60.2767L117.522 59.9956Z" fill="#231F20"/>
<path opacity="0.15" d="M116.096 61.6713L116.247 61.7578L116.334 61.5199L116.107 61.5523L116.096 61.6713Z" fill="#231F20"/>
<path opacity="0.15" d="M115.512 62.5903L115.36 62.5146L115.231 62.7633L115.447 62.7417L115.512 62.5903Z" fill="#231F20"/>
<path opacity="0.15" d="M117.015 61.9198L116.852 62.136L117.09 62.2117L117.101 62.0279L117.015 61.9198Z" fill="#231F20"/>
<path opacity="0.15" d="M118.127 60.7197L117.997 60.59L117.76 60.6981L117.684 60.8495L117.987 60.8819L118.127 60.7197Z" fill="#231F20"/>
<path opacity="0.15" d="M115.1 61.9523L115.37 61.855L115.316 61.6279L114.948 61.7577L115.1 61.9523Z" fill="#231F20"/>
<path opacity="0.15" d="M116.917 60.8497L116.852 60.6875L116.657 60.8713L116.863 60.9578L116.917 60.8497Z" fill="#231F20"/>
<path opacity="0.15" d="M118.161 60.2118L117.977 60.1361L117.847 60.2442L117.923 60.3956L118.161 60.2118Z" fill="#231F20"/>
<path opacity="0.15" d="M115.122 60.9686L115.273 60.8496L115.046 60.6766L114.852 60.7631L114.884 60.9577L115.122 60.9686Z" fill="#231F20"/>
<path opacity="0.15" d="M115.49 63.0335L115.555 62.8929L115.284 62.8605L115.317 63.0551L115.371 63.0659L115.306 63.2064L115.533 63.1956L115.555 63.0767L115.49 63.0335Z" fill="#231F20"/>
<path opacity="0.15" d="M116.506 62.0497L116.29 62.0605L116.214 62.201L116.354 62.2983L116.506 62.0497Z" fill="#231F20"/>
<path opacity="0.15" d="M114.636 62.4387L114.604 62.6225L114.679 62.7414L114.863 62.536L114.636 62.4387Z" fill="#231F20"/>
<path opacity="0.15" d="M113.511 63.8122L113.467 63.7689L113.284 63.996L113.489 64.0176L113.543 63.9419L113.586 63.996L113.835 63.9095L113.921 63.7581L113.63 63.6932L113.511 63.8122Z" fill="#231F20"/>
<path opacity="0.15" d="M111.77 63.0011L111.9 62.774L111.575 62.6443L111.532 62.9146L111.77 63.0011Z" fill="#231F20"/>
<path opacity="0.15" d="M113.252 63.0118L113.317 63.2064L113.436 63.1631L113.501 62.9685L113.252 63.0118Z" fill="#231F20"/>
<path opacity="0.15" d="M114.581 63.2388L114.43 63.2496L114.365 63.4334H114.646L114.581 63.2388Z" fill="#231F20"/>
<path opacity="0.15" d="M113.803 61.9524L113.63 62.0389L113.533 62.1686L113.771 62.2119L113.803 61.9524Z" fill="#231F20"/>
<path opacity="0.15" d="M112.398 62.0714L112.376 61.7687L112.192 61.7146L112.084 61.9092L112.225 62.0714H112.398Z" fill="#231F20"/>
<path opacity="0.15" d="M103.608 71.1096L103.554 71.1205L103.705 70.8718L103.413 70.8394L103.37 70.9907L103.5 71.1313L103.381 71.1421L103.37 71.261L103.521 71.3475L103.608 71.1096Z" fill="#231F20"/>
<path opacity="0.15" d="M102.786 72.1801L102.635 72.1044L102.505 72.353L102.721 72.3314L102.786 72.1801Z" fill="#231F20"/>
<path opacity="0.15" d="M104.948 70.4505L105.261 70.4721L105.402 70.3099L105.272 70.1802L105.034 70.2883L104.948 70.4505Z" fill="#231F20"/>
<path opacity="0.15" d="M102.375 71.5422L102.645 71.4449L102.591 71.2179L102.224 71.3476L102.375 71.5422Z" fill="#231F20"/>
<path opacity="0.15" d="M104.192 70.4394L104.127 70.2772L103.933 70.461L104.138 70.5475L104.192 70.4394Z" fill="#231F20"/>
<path opacity="0.15" d="M105.251 69.7258L105.121 69.8339L105.197 69.9853L105.435 69.8123L105.251 69.7258Z" fill="#231F20"/>
<path opacity="0.15" d="M103.845 69.6178L103.694 69.434L103.597 69.607L103.607 69.7475L103.845 69.6178Z" fill="#231F20"/>
<path opacity="0.15" d="M102.397 70.5584L102.548 70.4395L102.321 70.2665L102.127 70.353L102.159 70.5476L102.397 70.5584Z" fill="#231F20"/>
<path opacity="0.15" d="M101.575 73.975L101.261 74.2345L101.499 74.3426L101.716 74.148L101.575 73.975Z" fill="#231F20"/>
<path opacity="0.15" d="M102.689 72.5693L102.581 72.7964L102.808 72.7856L102.829 72.6666L102.689 72.5693Z" fill="#231F20"/>
<path opacity="0.15" d="M103.629 71.8882L103.78 71.6395L103.596 71.6503L103.715 71.4666H103.434L103.326 71.6503L103.488 71.7801V71.7909L103.629 71.8882Z" fill="#231F20"/>
<path opacity="0.15" d="M100.743 73.4451L100.862 73.5857L101.1 73.4992L101.197 73.3478L100.905 73.283L100.743 73.4451Z" fill="#231F20"/>
<path opacity="0.15" d="M98.8073 72.5154L99.0452 72.6018L99.1749 72.364L98.8506 72.2343L98.8073 72.5154Z" fill="#231F20"/>
<path opacity="0.15" d="M100.775 72.5586L100.526 72.6018L100.591 72.7965L100.71 72.7532L100.775 72.5586Z" fill="#231F20"/>
<path opacity="0.15" d="M101.705 72.8397L101.64 73.0235H101.921L101.856 72.8289L101.705 72.8397Z" fill="#231F20"/>
<path opacity="0.15" d="M101.078 71.5425L100.905 71.629L100.807 71.7587L101.045 71.802L101.078 71.5425Z" fill="#231F20"/>
<path opacity="0.15" d="M99.4666 71.3043L99.3585 71.4989L99.499 71.6611H99.672L99.6504 71.3584L99.4666 71.3043Z" fill="#231F20"/>
<path opacity="0.15" d="M108.657 68.4394L108.528 68.2556L108.203 68.5043L108.43 68.6232L108.657 68.4394Z" fill="#231F20"/>
<path opacity="0.15" d="M109.586 67.1205H109.813L109.824 67.0124L109.694 66.8934L109.586 67.1205Z" fill="#231F20"/>
<path opacity="0.15" d="M110.527 66.1472L110.668 66.2553L110.83 66.0175H110.613L110.527 66.1472Z" fill="#231F20"/>
<path opacity="0.15" d="M109.175 66.4283L108.948 66.3202L108.916 66.504L108.992 66.6229L109.175 66.4283Z" fill="#231F20"/>
<path opacity="0.15" d="M108.084 67.758L108.192 67.6067L107.9 67.531L107.738 67.6824L107.846 67.8337L108.084 67.758Z" fill="#231F20"/>
<path opacity="0.15" d="M110.581 67.1635L110.949 67.077L110.83 66.85L110.56 66.9149L110.581 67.1635Z" fill="#231F20"/>
<path opacity="0.15" d="M108.97 67.8987L109.175 67.7365L108.992 67.6284L108.916 67.7257L108.97 67.8987Z" fill="#231F20"/>
<path opacity="0.15" d="M107.63 68.1904L107.803 68.2877L107.933 68.2012L107.89 68.0391L107.63 68.1904Z" fill="#231F20"/>
<path opacity="0.15" d="M109.142 68.6016L109.251 68.8178L109.369 68.6556L109.38 68.5043L109.142 68.6016Z" fill="#231F20"/>
<path opacity="0.15" d="M110.776 67.8771H110.873L110.83 67.5959L110.679 67.6392L110.56 67.8771H110.625L110.506 67.9527L110.7 68.169L110.906 68.1041L110.895 67.8987L110.776 67.8771Z" fill="#231F20"/>
<path opacity="0.15" d="M111.845 64.3093L111.964 64.5039L112.299 64.2877L112.083 64.1471L111.845 64.3093Z" fill="#231F20"/>
<path opacity="0.15" d="M110.819 65.5528L110.603 65.542L110.57 65.6501L110.689 65.7798L110.819 65.5528Z" fill="#231F20"/>
<path opacity="0.15" d="M109.792 66.4501L109.673 66.3312L109.489 66.5582L109.705 66.5798L109.792 66.4501Z" fill="#231F20"/>
<path opacity="0.15" d="M111.154 66.2988L111.359 66.4285L111.403 66.2447L111.349 66.115L111.154 66.2988Z" fill="#231F20"/>
<path opacity="0.15" d="M112.678 65.1635L112.592 65.0013L112.343 65.0554L112.235 65.196L112.505 65.3041L112.678 65.1635Z" fill="#231F20"/>
<path opacity="0.15" d="M114.041 66.4825L114.333 66.6555L114.419 66.3852L114.203 66.2662L114.041 66.4825Z" fill="#231F20"/>
<path opacity="0.15" d="M112.733 65.8339L112.625 65.8663L112.528 66.0501H112.766L112.733 65.8339Z" fill="#231F20"/>
<path opacity="0.15" d="M111.76 65.4554L111.49 65.423L111.522 65.5635L111.425 65.6176L111.598 65.7257L111.727 65.6392L111.706 65.5635L111.76 65.4554Z" fill="#231F20"/>
<path opacity="0.15" d="M112.376 66.8608L112.149 66.7852L112.084 67.0446L112.268 66.9798L112.376 66.8608Z" fill="#231F20"/>
<path opacity="0.15" d="M113.458 67.1202L113.436 67.4338L113.609 67.5095L113.739 67.3365L113.631 67.1419L113.458 67.1202Z" fill="#231F20"/>
</g>
<path d="M65.3888 65.5525C65.8213 65.4552 66.2321 65.3687 66.5997 65.2714C81.0225 61.6927 122.766 55.2706 122.766 55.2706L122.55 56.5464L63.4644 75.7695L65.3888 65.5525Z" fill="#DA924E"/>
<g opacity="0.15">
<path opacity="0.15" d="M65.7346 71.4232L65.5941 71.153L65.2697 71.2394L65.2913 71.5205L65.7346 71.4232Z" fill="#231F20"/>
<path opacity="0.15" d="M66.4496 74.7963L66.655 75.1315L66.8712 74.8504L66.7091 74.6125L66.4496 74.7963Z" fill="#231F20"/>
<path opacity="0.15" d="M64.3288 72.6339L64.4694 72.7204L64.6315 72.5474L64.3829 72.3853L64.3288 72.6339Z" fill="#231F20"/>
<path opacity="0.15" d="M64.2106 74.5584L64.4269 74.5692L64.589 74.4719L64.4052 74.2881L64.2106 74.5584Z" fill="#231F20"/>
<path opacity="0.15" d="M65.5628 75.283L65.379 75.6289L65.5196 75.8019L65.7358 75.6506L65.7142 75.3803L65.5628 75.283Z" fill="#231F20"/>
<path opacity="0.15" d="M64.4593 72.8501L64.6323 73.0988L64.9458 72.9799L64.8918 72.7096L64.4593 72.8501Z" fill="#231F20"/>
<path opacity="0.15" d="M66.5034 71.8554L66.7305 71.9636L66.8061 71.8446L66.7305 71.65L66.5034 71.8554Z" fill="#231F20"/>
<path opacity="0.15" d="M67.9188 71.1529L67.9944 71.3475L68.2755 71.1312L68.0701 71.0339L67.9188 71.1529Z" fill="#231F20"/>
<path opacity="0.15" d="M66.4161 70.8502L66.2431 70.6232L66.1242 70.8286L66.1458 71.0016L66.4161 70.8502Z" fill="#231F20"/>
<path opacity="0.15" d="M64.4161 71.8988L64.6864 71.9205L64.8702 71.7907L64.654 71.6069L64.9459 71.4664L64.7837 71.3042L64.5567 71.4231L64.6107 71.5637L64.3729 71.6718L64.4161 71.8988Z" fill="#231F20"/>
<path opacity="0.15" d="M67.5833 72.072L67.4752 72.3639L67.886 72.4396V72.1153L67.5833 72.072Z" fill="#231F20"/>
<path opacity="0.15" d="M65.8002 72.396L65.6704 72.1798L65.5515 72.2663L65.5299 72.3636L65.4218 72.342L65.238 72.4501L65.465 72.6988L65.7029 72.6231L65.6921 72.4285L65.8002 72.396Z" fill="#231F20"/>
<path opacity="0.15" d="M64.1567 72.4177L64.3297 72.3744L64.3621 72.1582L64.0378 72.2123L64.1567 72.4177Z" fill="#231F20"/>
<path opacity="0.15" d="M65.6377 73.3909L65.3457 73.4017L65.3566 73.4341L65.3025 73.4233L65.1295 73.5963L65.3782 73.7044V73.6936L65.562 73.5639L65.6377 73.3909Z" fill="#231F20"/>
<path opacity="0.15" d="M67.4548 73.3799L67.2386 73.2178L67.0439 73.261L67.1304 73.5962L67.3683 73.6178L67.4548 73.3799Z" fill="#231F20"/>
<path opacity="0.15" d="M70.1136 69.5958L70.1353 69.8877L70.5785 69.7796L70.438 69.5201L70.1136 69.5958Z" fill="#231F20"/>
<path opacity="0.15" d="M68.4922 70.5909L68.2759 70.4719L68.1895 70.5909L68.2435 70.7855L68.4922 70.5909Z" fill="#231F20"/>
<path opacity="0.15" d="M67.0331 71.1745L66.9682 70.9799L66.6763 71.1637L66.8709 71.2826L67.0331 71.1745Z" fill="#231F20"/>
<path opacity="0.15" d="M68.6105 71.8664L68.751 71.6718V71.4988L68.4699 71.6177L68.6105 71.8664Z" fill="#231F20"/>
<path opacity="0.15" d="M70.5459 70.9798L70.5351 70.7528L70.2648 70.6987L70.081 70.8177L70.308 71.0663L70.5459 70.9798Z" fill="#231F20"/>
<path opacity="0.15" d="M71.2927 73.1637L71.4981 73.4989L71.7143 73.2178L71.5521 72.9691L71.2927 73.1637Z" fill="#231F20"/>
<path opacity="0.15" d="M69.163 70.9909L69.3036 71.0774L69.4766 70.9044L69.2279 70.7422L69.163 70.9909Z" fill="#231F20"/>
<path opacity="0.15" d="M69.0536 72.9151L69.2699 72.9259L69.4321 72.8286L69.2483 72.6448L69.0536 72.9151Z" fill="#231F20"/>
<path opacity="0.15" d="M70.4059 73.6395L70.2221 73.9963L70.3627 74.1693L70.5789 74.0179L70.5573 73.7476L70.4059 73.6395Z" fill="#231F20"/>
<path opacity="0.15" d="M72.1146 70.6123L71.7794 70.7312L71.9092 70.915L72.147 70.8285L72.1146 70.6123Z" fill="#231F20"/>
<path opacity="0.15" d="M73.5621 69.9528L73.508 69.8123L73.335 69.9744L73.508 70.0501L73.5621 69.9528Z" fill="#231F20"/>
<path opacity="0.15" d="M74.4702 69.5745L74.6864 69.4231L74.5243 69.3474L74.4161 69.4339L74.4702 69.5745Z" fill="#231F20"/>
<path opacity="0.15" d="M73.2708 69.2068L73.1411 69.0338L73.0546 69.1852L73.0654 69.3149L73.2708 69.2068Z" fill="#231F20"/>
<path opacity="0.15" d="M71.7133 69.8338L71.7458 70.0068L71.9512 70.0176L72.0917 69.9203L71.8971 69.7473L71.7133 69.8338Z" fill="#231F20"/>
<path opacity="0.15" d="M74.3948 70.4177L74.384 70.169L74.157 70.1366L74.1245 70.2339L74.1029 70.1366L73.7786 70.2663L73.9191 70.4393L74.1137 70.3636L74.3948 70.4177Z" fill="#231F20"/>
<path opacity="0.15" d="M72.6117 70.2769L72.5793 70.4499L72.7955 70.3742L72.6982 70.212L72.6117 70.2769Z" fill="#231F20"/>
<path opacity="0.15" d="M72.471 71.3691L72.6224 71.2718L72.6764 71.1421H72.4602L72.471 71.3691Z" fill="#231F20"/>
<path opacity="0.15" d="M73.8982 71.0125L73.7468 71.0341L73.8117 71.2936L73.9955 71.3044L74.0604 71.1314L73.8982 71.0125Z" fill="#231F20"/>
<path opacity="0.15" d="M76.0934 68.2553L76.1042 68.4715L76.4394 68.3958L76.3312 68.1904L76.0934 68.2553Z" fill="#231F20"/>
<path opacity="0.15" d="M74.8495 69.0121L74.6874 68.9148L74.6225 69.0013L74.6657 69.1527L74.8495 69.0121Z" fill="#231F20"/>
<path opacity="0.15" d="M74.8386 69.7905L74.9467 69.9743L75.044 69.8338L75.0548 69.6932L74.8386 69.7905Z" fill="#231F20"/>
<path opacity="0.15" d="M76.2013 69.0879L76.0608 69.1744L76.2338 69.369L76.4176 69.3041L76.4068 69.1311L76.2013 69.0879Z" fill="#231F20"/>
<path opacity="0.15" d="M76.9788 70.9582L77.1409 71.2177L77.3031 71.0014L77.1842 70.8176L76.9788 70.9582Z" fill="#231F20"/>
<path opacity="0.15" d="M76.114 69.9203L75.9734 70.05L76.1681 70.1257L76.2113 69.9203H76.114Z" fill="#231F20"/>
<path opacity="0.15" d="M75.2821 70.7744L75.4443 70.7852L75.5632 70.7095L75.4227 70.569L75.2821 70.7744Z" fill="#231F20"/>
<path opacity="0.15" d="M76.3089 71.3258L76.1683 71.5961L76.2764 71.7258L76.4386 71.6177L76.4278 71.4123L76.3089 71.3258Z" fill="#231F20"/>
<path opacity="0.15" d="M81.7142 66.7635L81.7791 66.9581L82.1035 66.8067L81.9413 66.6445L81.7142 66.7635Z" fill="#231F20"/>
<path opacity="0.15" d="M80.4065 67.8014L80.4822 67.942L80.6335 67.7582L80.4497 67.7041L80.4065 67.8014Z" fill="#231F20"/>
<path opacity="0.15" d="M79.6179 68.4283L79.5314 68.2986L79.3368 68.4824L79.5206 68.5364L79.6179 68.4283Z" fill="#231F20"/>
<path opacity="0.15" d="M81.0114 68.3524L80.806 68.493L80.9681 68.6335L81.033 68.4713L81.0114 68.3524Z" fill="#231F20"/>
<path opacity="0.15" d="M82.2452 67.4985L82.029 67.5202L81.91 67.6283L82.1263 67.7688L82.2993 67.6715L82.2452 67.4985Z" fill="#231F20"/>
<path opacity="0.15" d="M79.4982 67.4878L79.5306 67.7148H79.7685L79.8225 67.4986L79.4982 67.4878Z" fill="#231F20"/>
<path opacity="0.15" d="M81.1199 67.2932L81.2388 67.4338L81.3253 67.3581V67.1959L81.1199 67.2932Z" fill="#231F20"/>
<path opacity="0.15" d="M82.5035 67.2281L82.3846 67.0984L82.2548 67.1416V67.3146L82.5035 67.2281Z" fill="#231F20"/>
<path opacity="0.15" d="M81.3034 66.2876L81.1629 66.4065L81.1304 66.5363L81.3467 66.5038L81.3034 66.2876Z" fill="#231F20"/>
<path opacity="0.15" d="M79.9086 66.839L80.06 66.785L79.9518 66.5471L79.768 66.5687L79.7248 66.7525L79.9086 66.839Z" fill="#231F20"/>
<path opacity="0.15" d="M77.7151 69.7258L77.8556 69.8988L78.0935 69.8123L78.0394 69.5961L77.7151 69.7258Z" fill="#231F20"/>
<path opacity="0.15" d="M79.4011 68.731L79.2389 68.9039L79.4227 68.9688L79.4659 68.8715L79.4011 68.731Z" fill="#231F20"/>
<path opacity="0.15" d="M80.2989 68.3203L80.3746 68.4609L80.58 68.2879L80.407 68.223L80.2989 68.3203Z" fill="#231F20"/>
<path opacity="0.15" d="M78.9144 68.1365L78.9252 68.2662L79.1415 68.1473L79.0009 67.9851L78.9144 68.1365Z" fill="#231F20"/>
<path opacity="0.15" d="M77.9853 68.915L77.7799 68.7528L77.5961 68.8393L77.6393 69.0123H77.8555L77.9853 68.915Z" fill="#231F20"/>
<path opacity="0.15" d="M76.601 67.4876L76.7848 67.3254L76.5794 67.0984L76.4496 67.3254L76.601 67.4876Z" fill="#231F20"/>
<path opacity="0.15" d="M77.7151 68.2121L77.8232 68.2013L77.9421 68.0608L77.7367 68.0067L77.7151 68.2121Z" fill="#231F20"/>
<path opacity="0.15" d="M78.6445 68.8716L78.6661 68.677L78.5472 68.6338L78.4391 68.7852L78.6445 68.8716Z" fill="#231F20"/>
<path opacity="0.15" d="M78.5368 67.2605L78.3746 67.2713L78.2557 67.3578L78.4287 67.4767L78.5368 67.2605Z" fill="#231F20"/>
<path opacity="0.15" d="M77.3473 66.8388L77.2284 66.947L77.1851 67.0767L77.4122 67.0443L77.3689 66.8496L77.4122 66.8713L77.5095 66.5902L77.3905 66.4821L77.2392 66.6118L77.2824 66.8172L77.3473 66.8388Z" fill="#231F20"/>
<path opacity="0.15" d="M78.1581 67.3472L77.996 67.1851L77.7689 67.304L77.8446 67.4986L78.1581 67.3472Z" fill="#231F20"/>
<path opacity="0.15" d="M76.4603 68.3419L76.5468 68.4825L76.6981 68.2987L76.5035 68.2446L76.4603 68.3419Z" fill="#231F20"/>
<path opacity="0.15" d="M75.6814 68.969L75.5949 68.8392L75.4003 69.023L75.5733 69.0771L75.6814 68.969Z" fill="#231F20"/>
<path opacity="0.15" d="M77.0658 68.8932L76.8712 69.0229L77.0225 69.1743L77.0982 69.0121L77.0658 68.8932Z" fill="#231F20"/>
<path opacity="0.15" d="M78.3629 68.2014L78.3089 68.0392L78.0818 68.0608L77.9629 68.1689L78.1899 68.3095L78.3629 68.2014Z" fill="#231F20"/>
<path opacity="0.15" d="M75.5961 68.2554H75.834L75.8772 68.0283H75.5529L75.5961 68.2554Z" fill="#231F20"/>
<path opacity="0.15" d="M77.3905 67.8986V67.7365L77.1851 67.8338L77.304 67.9743L77.3905 67.8986Z" fill="#231F20"/>
<path opacity="0.15" d="M78.5581 67.7688L78.45 67.639L78.3094 67.6823L78.3203 67.8553L78.5581 67.7688Z" fill="#231F20"/>
<path opacity="0.15" d="M75.963 67.3796L76.1252 67.3255L76.0171 67.0876L75.8333 67.0985L75.79 67.2823L75.963 67.3796Z" fill="#231F20"/>
<path opacity="0.15" d="M75.4979 69.3473L75.5952 69.25L75.4114 69.1202L75.3682 69.3148L75.4006 69.3365L75.3033 69.4446L75.4763 69.5095L75.5303 69.4122L75.4979 69.3473Z" fill="#231F20"/>
<path opacity="0.15" d="M76.6335 68.8284L76.4713 68.7635L76.3632 68.8609L76.4281 68.9906L76.6335 68.8284Z" fill="#231F20"/>
<path opacity="0.15" d="M75.0553 68.5258L74.9796 68.6771L74.9904 68.8069L75.1959 68.6879L75.0553 68.5258Z" fill="#231F20"/>
<path opacity="0.15" d="M73.7142 69.3582L73.6926 69.3041L73.4655 69.4447L73.6169 69.5312L73.6817 69.4879L73.7034 69.5528H73.9088L74.0385 69.4555L73.8439 69.2933L73.7142 69.3582Z" fill="#231F20"/>
<path opacity="0.15" d="M72.6654 68.0283L72.8384 67.8661L72.6438 67.639L72.514 67.8661L72.6654 68.0283Z" fill="#231F20"/>
<path opacity="0.15" d="M73.8002 68.5474L73.7786 68.7528L73.8759 68.742L73.9948 68.6014L73.8002 68.5474Z" fill="#231F20"/>
<path opacity="0.15" d="M74.7305 69.2176L74.6115 69.1743L74.5034 69.3149L74.7088 69.4122L74.7305 69.2176Z" fill="#231F20"/>
<path opacity="0.15" d="M74.6002 67.801L74.4381 67.8118L74.3192 67.8983L74.4813 68.0173L74.6002 67.801Z" fill="#231F20"/>
<path opacity="0.15" d="M73.4756 67.4118L73.5729 67.1307L73.4432 67.0226L73.2918 67.1523L73.3459 67.3577L73.4756 67.4118Z" fill="#231F20"/>
<path opacity="0.15" d="M64.7512 72.2879L64.9782 72.4285L65.1512 72.3204L65.0971 72.1582L64.8701 72.1798L64.7512 72.2879Z" fill="#231F20"/>
<path opacity="0.15" d="M65.2383 71.7583L65.0978 71.8015L65.1086 71.9637L65.3464 71.888L65.2383 71.7583Z" fill="#231F20"/>
<path opacity="0.15" d="M68.319 71.7906L68.2757 71.5852L67.9514 71.6933L68.0811 71.8771L68.319 71.7906Z" fill="#231F20"/>
<path opacity="0.15" d="M69.4973 70.9366L69.6702 71.0231L69.7351 70.9258L69.6702 70.7744L69.4973 70.9366Z" fill="#231F20"/>
<path opacity="0.15" d="M70.5784 70.4067L70.6432 70.5473L70.8595 70.3851L70.6973 70.3094L70.5784 70.4067Z" fill="#231F20"/>
<path opacity="0.15" d="M69.433 70.169L69.3033 69.996L69.2168 70.1473L69.2276 70.2879L69.433 70.169Z" fill="#231F20"/>
<path opacity="0.15" d="M68.1242 70.9906L68.254 70.8825L68.0594 70.7203L67.8755 70.796L67.908 70.969L68.1242 70.9906Z" fill="#231F20"/>
<path opacity="0.15" d="M70.2441 71.3257L70.5577 71.3797V71.1419L70.3198 71.0986L70.2441 71.3257Z" fill="#231F20"/>
<path opacity="0.15" d="M68.7521 71.4123L68.9683 71.3475L68.871 71.1853L68.7737 71.2502L68.7521 71.4123Z" fill="#231F20"/>
<path opacity="0.15" d="M67.6277 71.2069L67.7142 71.3583L67.844 71.3259L67.8764 71.1637L67.6277 71.2069Z" fill="#231F20"/>
<path opacity="0.15" d="M68.6224 72.1151L68.6441 72.3421L68.7846 72.234L68.8495 72.1042L68.6224 72.1151Z" fill="#231F20"/>
<path opacity="0.15" d="M70.1461 72.0286L70.2109 72.0611L70.2866 71.8016L70.1461 71.7908L69.9731 71.9638L70.0271 71.9854L69.9082 72.007L69.9731 72.2665L70.1569 72.2773L70.2217 72.0935L70.1461 72.0286Z" fill="#231F20"/>
<path opacity="0.15" d="M72.2538 69.2173L72.2755 69.4336L72.5998 69.3579L72.4917 69.1525L72.2538 69.2173Z" fill="#231F20"/>
<path opacity="0.15" d="M71.0118 69.9744L70.8496 69.8771L70.7847 69.9744L70.828 70.1257L71.0118 69.9744Z" fill="#231F20"/>
<path opacity="0.15" d="M69.908 70.4176L69.8539 70.2662L69.6269 70.4068L69.7891 70.5041L69.908 70.4176Z" fill="#231F20"/>
<path opacity="0.15" d="M71.0008 70.7529L71.1089 70.9475L71.217 70.7961V70.6664L71.0008 70.7529Z" fill="#231F20"/>
<path opacity="0.15" d="M72.5789 70.277L72.5681 70.0932L72.3627 70.0608L72.2221 70.1473L72.3951 70.3311L72.5789 70.277Z" fill="#231F20"/>
<path opacity="0.15" d="M73.1516 71.9313L73.303 72.1908L73.4651 71.9746L73.3462 71.7908L73.1516 71.9313Z" fill="#231F20"/>
<path opacity="0.15" d="M72.3842 70.8935L72.276 70.8827L72.1463 71.0124L72.3301 71.0989L72.3842 70.8935Z" fill="#231F20"/>
<path opacity="0.15" d="M71.7685 70.2123L71.5739 70.0934L71.5414 70.2231L71.455 70.2447L71.5414 70.3961L71.682 70.3637L71.6928 70.288L71.7685 70.2123Z" fill="#231F20"/>
<path opacity="0.15" d="M71.7354 71.6828L71.5948 71.5422L71.4435 71.7477L71.6057 71.7585L71.7354 71.6828Z" fill="#231F20"/>
<path opacity="0.15" d="M72.4709 72.2988L72.3412 72.5691L72.4385 72.6989L72.6115 72.5799L72.5898 72.3745L72.4709 72.2988Z" fill="#231F20"/>
</g>
<path d="M66.0589 74.4615L122.798 55.1195L122.561 56.5358L93.5745 74.5913L66.0589 74.4615Z" fill="#DA924E"/>
<path d="M63.767 73.8884L122.269 55.2924H122.236L63.9075 73.1316L63.767 73.8884Z" fill="#4F4848"/>
<path d="M63.7671 73.8884L63.3022 76.4724L122.269 55.3032V55.2924L63.7671 73.8884Z" fill="#684B41"/>
<path d="M63.7889 73.8559L63.67 74.5046L122.269 55.3032V55.2924L63.7889 73.8559Z" fill="#403A3A"/>
<path d="M63.7458 75.4235H92.3318L94.3103 74.1802H67.6812L63.7458 75.4235Z" fill="#8C6D62"/>
<path d="M63.7458 75.4238L63.6594 75.8887H92.2453L92.3318 75.4238H63.7458Z" fill="#403A3A"/>
<path d="M82.4928 67.3043H105.262L106.603 66.7745H84.8497L82.4928 67.3043Z" fill="#403A3A"/>
<path d="M82.4926 67.3043L82.4602 67.4989H105.219L105.262 67.3043H82.4926Z" fill="#4F4848"/>
<path d="M86.9038 65.7471H107.695L108.841 65.2822H88.9256L86.9038 65.7471Z" fill="#403A3A"/>
<path d="M86.9036 65.7474L86.8712 65.9204H107.662L107.694 65.7474H86.9036Z" fill="#4F4848"/>
<path d="M89.8985 64.3203H109.922L111.003 63.8987H91.7905L89.8985 64.3203Z" fill="#606060"/>
<path d="M89.8989 64.3202L89.8773 64.4824H109.89L109.922 64.3202H89.8989Z" fill="#4F4848"/>
<path d="M92.0291 76.3211L122.54 56.5574L122.572 56.4169L89.6613 76.3211H92.0291Z" fill="#4F4848"/>
<path d="M92.0283 76.3209L91.6066 78.6563L122.517 56.7303L122.539 56.6113L92.0283 76.3209Z" fill="#684B41"/>
<path d="M92.0286 76.3213L91.9205 76.97L122.539 56.6117L122.561 56.536L92.0286 76.3213Z" fill="#403A3A"/>
<path d="M99.5414 68.7742C99.5414 68.7742 99.3468 70.2229 99.6928 70.5689L100.341 70.7311C100.341 70.7311 101.033 70.7311 101.347 68.9472L101.931 69.0661L102.277 68.9039V68.9256C102.288 69.0553 102.352 69.1418 102.439 69.1634L102.752 69.2283C102.752 69.2283 103.077 69.2391 103.196 68.6661L104.331 67.4119L104.547 67.4444L104.59 67.1849L104.861 67.2173C104.861 67.2173 104.828 67.3579 104.839 67.4768C104.85 67.5525 104.915 67.6065 105.001 67.6173L105.174 67.6282C105.304 67.639 105.434 67.5633 105.499 67.4552C105.585 67.3146 105.693 67.0659 105.769 66.6119L106.082 66.6551C106.558 66.7092 107.088 66.1794 107.218 65.4658L107.272 65.1847L107.445 65.1955C107.683 65.2172 107.92 64.9577 107.985 64.6225L108.191 63.4765L109.218 63.5197C109.218 63.5197 109.023 64.3306 109.348 64.6225C109.38 64.6441 109.423 64.6658 109.467 64.6658H109.758C109.823 64.6658 109.877 64.6441 109.921 64.6009C110.018 64.5144 110.169 64.3198 110.245 63.9198L110.883 63.5954C110.883 63.5954 110.829 63.7252 110.926 63.7468L111.337 63.7576C111.337 63.7576 111.532 63.7468 111.596 63.3576L112.732 62.6656L113.056 62.6764C113.056 62.6764 113.434 62.6116 113.456 61.9845H114.061L114.451 61.7358H114.548L114.624 61.3033L114.991 61.0655C114.991 61.0655 115.51 61.2601 116.105 60.6763L116.116 60.6006L116.202 60.6114L122.527 56.557C122.538 56.557 122.754 55.3137 122.765 55.2272C122.765 55.2164 101.304 58.0599 101.304 58.0599L99.5414 68.7742Z" fill="#28201F"/>
<g opacity="0.12">
<g opacity="0.12">
<path opacity="0.12" d="M103.509 61.2709C103.661 61.2709 103.812 61.0763 103.855 60.8384L103.877 60.6979L103.736 60.7087L103.715 60.8492C103.693 60.9574 103.617 61.0547 103.552 61.0547L101.714 61.1195L101.671 61.3249L103.509 61.2709Z" fill="white"/>
</g>
<path opacity="0.12" d="M109.662 63.5413L111.792 62.471L111.641 63.2818C111.641 63.2818 112.473 62.9359 112.625 62.1034L112.841 60.9357H112.56L112.419 61.6709L111.922 61.8871L112.138 60.7411L110.041 61.5628L109.662 63.5413ZM111.641 62.0385L111.825 61.952L111.781 62.179L111.598 62.2872L111.641 62.0385ZM111.111 62.3196L111.295 62.2331L111.241 62.4926L111.057 62.5899L111.111 62.3196ZM110.668 62.5142L110.884 62.4169L110.83 62.7304L110.614 62.8277L110.668 62.5142ZM110.149 62.7088L110.344 62.6548L110.279 63.0007L110.084 63.0764L110.149 62.7088Z" fill="white"/>
<path opacity="0.12" d="M111.976 60.6547L110.408 60.6763L109.727 60.8709C109.727 60.8709 109.64 61.0547 109.521 61.0871H110.073L110.04 61.2385H109.305L109.273 61.4331H110.008L111.976 60.6547Z" fill="white"/>
<path opacity="0.12" d="M109.759 60.6872L109.77 60.6331C109.867 60.1142 109.64 59.7033 109.262 59.7249L108.905 59.7358L108.364 59.9087H108.472C108.829 59.8979 109.056 60.298 108.959 60.8061L108.894 61.1845L109.759 60.6872Z" fill="white"/>
<path opacity="0.12" d="M105.294 64.3091L105.056 64.2875L104.602 65.4659C104.429 65.92 104.105 66.2011 103.802 66.1579L103.748 66.1471L103.78 65.9416L103.596 65.92L103.629 65.7362L103.823 65.7578L103.856 65.574L103.661 65.5632L103.705 65.347L103.921 65.3686L103.953 65.174L103.737 65.1524L103.769 64.9794L103.986 65.001L104.007 64.8389L103.802 64.8172L103.845 64.5686L104.072 64.5794L104.137 64.201L104.267 64.2118L104.31 63.9631L104.451 63.9739L104.505 63.6928L104.267 63.682L103.921 63.8117C103.705 63.8982 103.51 64.1793 103.445 64.5145L103.099 66.3957C102.905 67.4336 102.894 68.2013 103.067 68.3959C103.164 68.504 103.348 68.3202 103.467 68.1905L104.386 67.1634C104.634 66.8282 104.818 66.5471 104.926 66.1471C105.056 65.7254 105.175 65.2389 105.294 64.3091Z" fill="white"/>
<path opacity="0.12" d="M104.062 61.6278H104.472C104.818 61.6278 105.024 62.0711 104.926 62.6225C104.829 63.1631 104.462 63.5955 104.116 63.5739L103.661 63.5523L103.813 63.5631C104.094 63.5739 104.386 63.2279 104.472 62.7847L104.516 62.5468C104.602 62.1035 104.429 61.7359 104.148 61.7359H103.943L104.062 61.6278Z" fill="white"/>
<path opacity="0.12" d="M103.889 62.2548L104.246 62.6656L104.213 62.8494L104.062 62.8386L103.737 62.471L103.013 62.4494L102.862 62.071L102.959 62.0277L103.056 62.2439L103.889 62.2548Z" fill="white"/>
<path opacity="0.12" d="M103.207 64.1469L102.785 64.1145L102.007 68.331L102.364 68.2337L102.299 68.5797L101.596 68.904C101.596 68.904 101.866 68.7203 101.996 68.0499L102.407 65.7903C102.547 65.0335 102.288 64.3956 101.834 64.3524L101.564 64.3307L101.65 63.8875L102.028 63.9091L102.234 63.7793L102.342 63.1847L102.666 63.1955L102.72 64.0064L103.218 64.0388L103.207 64.1469Z" fill="white"/>
<path opacity="0.12" d="M101.121 69.5635C101.121 69.5635 100.753 70.0608 100.558 69.6932C100.375 69.3256 100.483 68.4499 100.602 67.7363C100.71 67.0228 101.067 64.601 101.531 64.6118C101.531 64.6118 101.023 64.5145 100.753 64.8496L99.9962 68.9905C99.9962 68.9905 99.834 70.45 100.364 70.5906C100.796 70.7203 101.121 69.5635 101.121 69.5635Z" fill="white"/>
<path opacity="0.12" d="M105.823 66.5038C105.823 66.5038 105.283 66.4605 105.467 64.8496L105.65 64.8604L105.748 64.3522L105.477 64.3306L105.585 63.7684L105.369 63.7576L105.045 62.871L105.131 62.3737L105.607 62.4818V62.2764L105.142 62.1575C105.142 62.1575 105.175 61.725 104.807 61.5737H105.358C105.358 61.5737 105.672 60.9682 105.942 61.4223H106.396L106.353 61.6385H107.142L107.077 61.9629L107.304 62.817L107.25 63.1413L105.921 63.0873L105.856 63.4657L105.964 63.4765L105.888 65.0983L106.213 65.1307L106.245 64.9469L106.104 64.9361L106.137 64.7739L106.634 64.8171L106.667 64.655L106.18 64.6117L106.223 64.3847L106.71 64.4171L106.742 64.2441L106.245 64.2117L106.277 64.0387L106.775 64.0711L106.818 63.8441L106.342 63.8117L106.364 63.6927L106.84 63.7144L106.872 63.5306L106.45 63.5089L106.472 63.3792L107.153 63.4116L106.948 64.536C106.948 64.536 107.186 64.4171 107.369 63.8765C107.369 63.8765 107.261 63.7576 107.348 63.2927C107.434 62.8278 107.596 62.1034 107.921 62.0602C108.256 62.0169 108.061 63.2819 108.061 63.2819L107.888 63.2711C107.888 63.2711 107.942 62.9575 107.823 62.9792C107.705 62.99 107.629 63.4008 107.737 63.4441C107.845 63.4765 108.094 63.6603 107.986 64.2441C107.878 64.828 107.542 64.882 107.542 64.882L107.705 64.0063L107.813 64.0171L107.834 63.909L107.532 63.8873C107.532 63.8873 107.337 64.8604 107.272 65.1847C107.121 65.7794 106.829 66.6227 105.823 66.5038Z" fill="white"/>
<path opacity="0.12" d="M108.678 60.9682L107.878 60.979C107.878 60.979 107.878 60.7844 107.921 60.7196C107.975 60.6655 108.721 60.7088 108.721 60.7088L108.678 60.9682Z" fill="white"/>
<path opacity="0.12" d="M107.997 60.3196L107.694 60.3304L107.445 61.6494L107.727 61.6602L107.77 61.4332H107.608L107.781 60.4818L107.964 60.4709L107.997 60.3196Z" fill="white"/>
<path opacity="0.12" d="M106.246 60.8384C106.246 60.8384 105.705 60.7843 105.316 61.0113C104.927 61.2384 104.105 61.5519 103.878 61.606C103.651 61.66 103.067 61.7357 102.786 61.7682C102.505 61.8006 101.846 62.125 101.846 62.125H101.77L101.802 61.9303L102.905 61.5195C102.905 61.5195 104.43 61.433 104.981 61.0222C105.543 60.6005 105.922 60.6978 105.922 60.6978L106.246 60.8384Z" fill="white"/>
<path opacity="0.12" d="M113.901 58.6764C113.901 58.6764 114.398 58.9575 113.965 59.5413L115.609 58.8493C115.609 58.8493 115.966 58.3304 115.501 58.0925L113.901 58.6764Z" fill="white"/>
<path opacity="0.12" d="M116.419 58.2978C116.419 58.2978 115.976 58.687 115.857 58.2329C115.857 58.2329 115.695 58.7735 116.203 58.7411C116.203 58.7411 116.506 58.7194 116.647 58.287L116.419 58.2978Z" fill="white"/>
<path opacity="0.12" d="M113.9 58.9142L113.803 59.4656L113.49 59.4764L113.565 59.0872C113.554 59.0872 113.846 59.1304 113.9 58.9142Z" fill="white"/>
<path opacity="0.12" d="M111.337 60.3303L111.305 60.4924L111.618 60.4816L111.715 59.9194L111.402 59.9302L111.369 60.1357L110.667 60.1573L110.634 60.3519L111.337 60.3303Z" fill="white"/>
<path opacity="0.12" d="M111.835 59.5087C111.835 59.5087 112.56 59.4439 112.722 60.4818L113.122 60.2872C113.122 60.2872 113.068 59.0655 111.954 59.1952L111.835 59.5087Z" fill="white"/>
<path opacity="0.12" d="M112.322 60.7304H112.225L112.257 60.5358H112.03C112.03 60.5358 112.073 60.1574 111.781 60.1142L111.846 59.779L112.084 59.7682C112.095 59.779 112.495 60.0385 112.322 60.7304Z" fill="white"/>
<path opacity="0.12" d="M114.495 59.4005L114.3 60.4601C114.257 60.7087 114.062 60.9033 113.857 60.9141H113.846" fill="white"/>
<path opacity="0.12" d="M113.77 59.9629L113.349 62.2549C113.327 62.3738 113.241 62.482 113.143 62.5252C112.992 62.5793 112.862 62.4495 112.905 62.2549L113.327 59.9845C113.349 59.8439 113.457 59.725 113.576 59.7034C113.716 59.6709 113.803 59.8007 113.77 59.9629Z" fill="white"/>
<path opacity="0.12" d="M114.117 61.898L114.279 61.0222L114.538 60.9249L114.43 61.6926L114.117 61.898Z" fill="white"/>
<path opacity="0.12" d="M114.991 60.9681C114.991 60.9681 114.645 60.6545 114.764 60.0599C114.872 59.5193 115.002 59.2382 115.64 59.022C115.64 59.022 115.24 59.3031 115.099 60.0491C114.97 60.7951 115.748 60.7302 115.888 60.2437H116.094L116.04 60.6113C116.051 60.6005 115.629 61.1411 114.991 60.9681Z" fill="white"/>
<path opacity="0.12" d="M116.344 59.5844L116.279 59.9628L116.495 60.3628L116.69 60.2439L116.344 59.5844Z" fill="white"/>
<path opacity="0.12" d="M116.311 59.1519L116.905 60.0925L117.176 59.9195L116.484 58.8491H116.365L116.311 59.1519Z" fill="white"/>
<path opacity="0.12" d="M117.349 58.8059L116.895 58.8275L116.841 59.1303L117.057 59.4222L117.241 59.4114L117.349 58.8059Z" fill="white"/>
<g opacity="0.12">
<path opacity="0.12" d="M117.868 57.541C117.868 57.541 118.625 58.2437 117.706 59.5844L118.603 58.9897C118.603 58.9897 119.133 58.0599 118.549 57.2599L117.868 57.541Z" fill="white"/>
<path opacity="0.12" d="M120.419 56.6006C120.419 56.6006 120.809 57.1844 120.279 57.9088L120.733 57.5845C120.733 57.5845 121.079 56.9033 120.744 56.4817L120.419 56.6006Z" fill="white"/>
<path opacity="0.12" d="M121.75 56.0384C121.75 56.0384 122.031 56.4384 121.696 57.0331L121.891 56.9033C121.891 56.9033 122.172 56.5357 121.923 55.9735L121.75 56.0384Z" fill="white"/>
<path opacity="0.12" d="M122.063 55.9193C122.063 55.9193 122.29 56.3194 122.009 56.8491L122.182 56.741C122.182 56.741 122.431 56.3302 122.214 55.8761L122.063 55.9193Z" fill="white"/>
</g>
</g>
<path d="M121.112 51.0756L122.906 52.6865C123.025 52.7838 123.069 52.9352 123.036 53.0865L122.571 55.6273L120.42 56.3733L121.112 51.0756Z" fill="#1C558A"/>
<path d="M121.134 52.4594L122.972 53.4648L122.81 54.3622L120.842 54.0703L121.134 52.4594Z" fill="#FCC172"/>
<path d="M120.42 56.373L119.328 56.3838L120.323 50.9023L120.863 50.8915C121.166 50.8915 121.382 51.0969 121.328 51.3672L120.42 56.373Z" fill="#1C558A"/>
<path d="M120.842 54.0703L119.75 54.0811L120.041 52.481L121.133 52.4594L120.842 54.0703Z" fill="#FCC172"/>
<path d="M120.777 54.4164L119.761 54.4272L119.739 54.5677L120.755 54.5569L120.777 54.4164Z" fill="#FCC172"/>
<path d="M120.734 54.6759L119.717 54.6867L119.696 54.8273L120.712 54.8165L120.734 54.6759Z" fill="#FCC172"/>
<path d="M121.275 51.0756L122.907 52.6865C123.004 52.773 123.058 52.9027 123.048 53.0433L121.285 51.6594L120.183 51.6702L120.323 50.9026L120.756 50.8918C120.972 50.881 121.134 50.9134 121.275 51.0756Z" fill="#EDDAC5"/>
<path d="M119.869 56.3841H119.328L120.02 52.546L120.571 52.5352L119.869 56.3841Z" fill="#403A3A"/>
<path d="M120.777 54.4164L120.756 54.5569L122.767 54.611L122.778 54.5245L120.777 54.4164Z" fill="#FCC172"/>
<path d="M120.713 54.8165L122.723 54.7948L122.745 54.7083L120.734 54.6759" fill="#FCC172"/>
<path opacity="0.2" d="M120.42 56.373L119.328 56.3838L120.323 50.9023L120.863 50.8915C121.166 50.8915 121.382 51.0969 121.328 51.3672L120.42 56.373Z" fill="#231F20"/>
<path d="M121.22 52.5892L120.561 56.2111L121.015 56.0814L121.61 52.7838L121.22 52.5892Z" fill="#403A3A"/>
<path d="M121.783 52.9459L121.588 54.0379L122.767 54.2541L122.907 53.5189L121.783 52.9459Z" fill="#403A3A"/>
<path d="M122.799 54.4163L122.885 53.9189L122.799 54.4163Z" fill="#FCC172"/>
<path d="M122.961 53.4975L123.026 53.184L122.961 53.4975Z" fill="#EDDAC5"/>
<path d="M122.723 54.8383L122.734 54.7518H122.886L122.896 54.6653H122.756L122.604 55.4762H122.745L122.864 54.8383H122.723Z" fill="#1C558A"/>
<path opacity="0.2" d="M122.723 54.8383L122.734 54.7518H122.886L122.896 54.6653H122.756L122.604 55.4762H122.745L122.864 54.8383H122.723Z" fill="#231F20"/>
<path d="M122.907 54.5786L122.939 54.4164H122.799L122.755 54.611L122.766 54.5786H122.907Z" fill="#1C558A"/>
<path opacity="0.2" d="M122.907 54.5786L122.939 54.4164H122.799L122.755 54.611L122.766 54.5786H122.907Z" fill="#231F20"/>
<path d="M123.058 53.757L123.112 53.4867L122.961 53.4975L122.885 53.9192L122.917 53.7678L123.058 53.757Z" fill="#1C558A"/>
<path opacity="0.2" d="M123.058 53.757L123.112 53.4867L122.961 53.4975L122.885 53.9192L122.917 53.7678L123.058 53.757Z" fill="#231F20"/>
<path d="M122.907 54.5786H122.766L122.755 54.611V54.6651H122.896L122.907 54.5786Z" fill="#FCC172"/>
<path opacity="0.2" d="M122.907 54.5786H122.766L122.755 54.611V54.6651H122.896L122.907 54.5786Z" fill="#231F20"/>
<path d="M122.724 54.8382H122.864L122.886 54.7517H122.734L122.724 54.8382Z" fill="#FCC172"/>
<path opacity="0.2" d="M122.724 54.8382H122.864L122.886 54.7517H122.734L122.724 54.8382Z" fill="#231F20"/>
<path d="M123.058 53.757L122.917 53.7678L122.885 53.9191L122.799 54.4165H122.939L123.058 53.757Z" fill="#FCC172"/>
<path opacity="0.2" d="M123.058 53.757L122.917 53.7678L122.885 53.9191L122.799 54.4165H122.939L123.058 53.757Z" fill="#231F20"/>
<path d="M123.166 53.184H123.026L122.961 53.4975L123.112 53.4867L123.166 53.184Z" fill="#EDDAC5"/>
<path opacity="0.2" d="M123.166 53.184H123.026L122.961 53.4975L123.112 53.4867L123.166 53.184Z" fill="#231F20"/>
<path d="M117.879 56.1249L118.873 56.3844L119.965 50.3839C120.03 50.0379 119.749 49.7568 119.349 49.7676L119.046 49.7784L117.879 56.1249Z" fill="#1C558A"/>
<path d="M120.15 50.2217C120.237 50.3082 120.409 50.4271 120.366 50.6542C120.355 50.6974 120.334 50.8488 120.334 50.8488L119.307 56.4816L118.831 56.6763L119.901 50.7515L119.923 50.6542L119.912 50.3731L119.847 49.9514L120.15 50.2217Z" fill="#1C558A"/>
<path d="M119.75 54.0816L119.318 54.0275L118.28 54.0383L118.658 51.9949H118.723C118.842 52.0058 118.842 52.1139 118.831 52.2112L118.756 52.6545C118.723 52.8166 118.907 52.8815 119.026 52.8707L119.188 52.8491C119.307 52.8382 119.469 52.7734 119.512 52.5355L119.588 52.1139C119.61 52.0166 119.675 52.0274 119.739 52.049L119.793 52.0814L119.912 51.4327L119.977 51.476L119.685 53.0761L119.815 53.0653L119.977 52.1787L120.107 52.2436L119.75 54.0816Z" fill="#FCC172"/>
<path d="M120.204 51.3136L119.901 51.0865L119.88 51.2487L119.977 51.3136L119.663 53.0651L119.793 53.0867L120.096 51.3893L120.182 51.4433L120.204 51.3136Z" fill="#403A3A"/>
<path opacity="0.2" d="M119.869 50.6325C119.869 50.6325 119.782 50.4487 119.523 50.3406C119.393 50.2865 119.133 50.2649 118.971 50.2649L118.939 50.4703C118.928 50.4703 119.652 50.3622 119.869 50.6325Z" fill="#231F20"/>
<path opacity="0.2" d="M117.879 56.1249L118.873 56.3844L119.965 50.3839C120.03 50.0379 119.749 49.7568 119.349 49.7676L119.046 49.7784L117.879 56.1249Z" fill="#231F20"/>
<path d="M101.943 35.4744C101.943 35.4744 102.938 35.7123 103.857 36.415L107.76 39.1396L118.939 49.1403C119.101 49.2809 119.166 49.4863 119.123 49.7025L117.977 56.0057L104.257 58.3843L99.4673 58.4167L97.013 58.7627L78.5576 58.5573L82.4497 37.6259C82.5146 37.2908 82.7741 36.9772 83.1201 36.8043C84.904 35.9393 93.4127 33.9716 101.943 35.4744Z" fill="#1C558A"/>
<path d="M106.625 45.3779L102.182 45.2806L100.69 45.086C99.7813 44.9671 99.0029 45.1725 98.2028 45.832L88.4832 53.8434L81.0664 45.0536L79.5311 53.5191L83.3476 58.2438L91.9429 58.3195L97.3487 54.0381C98.4515 53.1515 98.9164 52.9353 100.614 52.9245L101.1 52.9136L105.274 52.8488L106.625 45.3779Z" fill="#FCC172"/>
<path opacity="0.15" d="M103.597 37.7233L99.8454 58.406L97.7155 58.3736L101.878 35.4529C101.878 35.4529 102.959 35.6799 103.381 36.3178C103.759 36.8908 103.597 37.7233 103.597 37.7233Z" fill="#231F20"/>
<path d="M104.268 58.3842L107.76 39.1395L118.928 49.1511C119.101 49.3133 119.177 49.5403 119.134 49.7782L117.977 56.0057L104.268 58.3842Z" fill="#1C558A"/>
<path d="M118.366 54.0272L105.273 52.8596L106.624 45.3779L118.863 51.2919L118.366 54.0272Z" fill="#FCC172"/>
<path opacity="0.2" d="M104.311 58.3735L110.106 57.3681L112.258 45.5077L107.252 42.1453L104.311 58.3735Z" fill="#231F20"/>
<g opacity="0.2">
<g opacity="0.2">
<path opacity="0.2" d="M110.203 51.0645L110.29 51.0861L109.825 53.6592L109.728 53.6484L110.203 51.0645Z" fill="#231F20"/>
<path opacity="0.2" d="M110.572 51.1511L110.658 51.1727L110.204 53.681H110.117L110.572 51.1511Z" fill="#231F20"/>
<path opacity="0.2" d="M106.646 50.2537L106.776 50.2861L106.203 53.4431L106.073 53.4323L106.646 50.2537Z" fill="#231F20"/>
<path opacity="0.2" d="M111.102 50.7508L111.015 50.7292L111.469 48.2642L111.545 48.3074L111.102 50.7508Z" fill="#231F20"/>
<path opacity="0.2" d="M107.576 50.4698L107.706 50.4915L107.154 53.4971L107.035 53.4863L107.576 50.4698Z" fill="#231F20"/>
<path opacity="0.2" d="M108.43 50.6536L108.538 50.686L108.019 53.5511L107.901 53.5403L108.43 50.6536Z" fill="#231F20"/>
<path opacity="0.2" d="M109.717 50.9564L109.814 50.978L109.328 53.6269H109.23L109.717 50.9564Z" fill="#231F20"/>
<path opacity="0.2" d="M109.101 50.816L109.198 50.8377L108.701 53.5946L108.593 53.5838L109.101 50.816Z" fill="#231F20"/>
<path opacity="0.2" d="M110.485 53.7026L110.928 51.2267L111.015 51.2483L110.561 53.7026H110.485Z" fill="#231F20"/>
<path opacity="0.2" d="M108.646 50.113L108.527 50.0806L109.057 47.2047L109.165 47.248L108.646 50.113Z" fill="#231F20"/>
<path opacity="0.2" d="M107.446 45.8317L107.976 42.9017L108.106 42.9882L107.576 45.8857L107.446 45.8317Z" fill="#231F20"/>
<path opacity="0.2" d="M108.236 46.8372L108.355 46.8912L107.814 49.886L107.695 49.8536L108.236 46.8372Z" fill="#231F20"/>
<path opacity="0.2" d="M109.911 50.4375L109.814 50.4159L110.301 47.7562L110.387 47.7887L109.911 50.4375Z" fill="#231F20"/>
<path opacity="0.2" d="M110.388 50.5672L110.29 50.5455L110.766 47.9615L110.852 47.994L110.388 50.5672Z" fill="#231F20"/>
<path opacity="0.2" d="M109.295 50.2859L109.198 50.2535L109.695 47.4857L109.792 47.529L109.295 50.2859Z" fill="#231F20"/>
<path opacity="0.2" d="M110.755 50.6645L110.669 50.6428L111.123 48.1129L111.209 48.1562L110.755 50.6645Z" fill="#231F20"/>
<path opacity="0.2" d="M110.117 54.1566L109.707 56.4054L109.62 56.4162L110.031 54.1566H110.117Z" fill="#231F20"/>
<path opacity="0.2" d="M107.467 46.5021L106.894 49.6483L106.765 49.6159L107.338 46.4373L107.467 46.5021Z" fill="#231F20"/>
<path opacity="0.2" d="M109.241 54.1245L108.808 56.5031L108.7 56.5139L109.144 54.1245H109.241Z" fill="#231F20"/>
<path opacity="0.2" d="M109.739 54.1456L109.317 56.4485L109.22 56.4593L109.641 54.1348L109.739 54.1456Z" fill="#231F20"/>
<path opacity="0.2" d="M108.604 54.1135L108.16 56.5785L108.052 56.5893L108.495 54.1027L108.604 54.1135Z" fill="#231F20"/>
<path opacity="0.2" d="M106.095 54.0378L105.587 56.8596L105.446 56.8812L105.965 54.027L106.095 54.0378Z" fill="#231F20"/>
<path opacity="0.2" d="M107.923 54.0919L107.458 56.6542L107.339 56.665L107.804 54.0811L107.923 54.0919Z" fill="#231F20"/>
<path opacity="0.2" d="M107.057 54.0594L106.571 56.7515L106.441 56.7624L106.928 54.0594H107.057Z" fill="#231F20"/>
<path opacity="0.2" d="M110.485 54.1675L110.085 56.3622L109.998 56.3731L110.398 54.1675H110.485Z" fill="#231F20"/>
<path opacity="0.2" d="M109.154 46.6425L109.641 43.9937L109.738 44.0585L109.263 46.6966L109.154 46.6425Z" fill="#231F20"/>
<path opacity="0.2" d="M108.343 46.2533L108.851 43.4747L108.959 43.5504L108.462 46.3182L108.343 46.2533Z" fill="#231F20"/>
<path opacity="0.2" d="M109.792 46.956L110.257 44.4044L110.354 44.4585L109.889 46.9992L109.792 46.956Z" fill="#231F20"/>
<path opacity="0.2" d="M111.209 47.6264L111.631 45.3019L111.717 45.3559L111.296 47.6696L111.209 47.6264Z" fill="#231F20"/>
<path opacity="0.2" d="M110.387 47.2372L110.831 44.783L110.928 44.837L110.485 47.2804L110.387 47.2372Z" fill="#231F20"/>
<path opacity="0.2" d="M111.556 47.7886L111.967 45.5182L112.042 45.5722L111.631 47.8319L111.556 47.7886Z" fill="#231F20"/>
<path opacity="0.2" d="M110.852 47.4642L111.285 45.0748L111.371 45.1289L110.939 47.4966L110.852 47.4642Z" fill="#231F20"/>
</g>
<g opacity="0.2">
<g opacity="0.2">
<path opacity="0.2" d="M104.938 57.3136L110.063 56.6541L110.085 56.5568L104.96 57.1838L104.938 57.3136Z" fill="#231F20"/>
</g>
<g opacity="0.2">
<path opacity="0.2" d="M105.576 53.7567L110.549 53.973L110.571 53.8757L105.597 53.6378L105.576 53.7567Z" fill="#231F20"/>
</g>
<g opacity="0.2">
<path opacity="0.2" d="M106.28 49.8862L111.08 51.0431L111.102 50.9566L106.301 49.7565L106.28 49.8862Z" fill="#231F20"/>
</g>
<g opacity="0.2">
<path opacity="0.2" d="M106.993 45.9723L111.62 48.1022L111.631 48.0049L107.015 45.8534L106.993 45.9723Z" fill="#231F20"/>
</g>
</g>
</g>
<path opacity="0.2" d="M110.322 57.3354L110.495 57.3137L112.592 45.7129L112.462 45.5291L110.322 57.3354Z" fill="#231F20"/>
<path opacity="0.2" d="M113.718 56.7517L113.955 56.7084L115.685 47.1509L115.48 46.9888L113.718 56.7517Z" fill="#231F20"/>
<path opacity="0.2" d="M114.388 56.6328L114.604 56.5895L116.236 47.5834L116.053 47.4429L114.388 56.6328Z" fill="#231F20"/>
<path opacity="0.2" d="M115.329 56.4598L115.502 56.4274L116.777 49.4323L116.615 49.335L115.329 56.4598Z" fill="#231F20"/>
<path opacity="0.2" d="M116.194 56.3195L116.334 56.287L117.502 49.8757L117.372 49.8L116.194 56.3195Z" fill="#231F20"/>
<path opacity="0.2" d="M116.907 56.1895L117.026 56.1571L118.107 50.2431L117.988 50.1782L116.907 56.1895Z" fill="#231F20"/>
<path d="M113.868 48.6107L114.787 49.0972L115.231 46.6862L114.344 45.9943L113.868 48.6107Z" fill="#403A3A"/>
<path d="M112.42 47.8861L113.588 48.4915L114.064 45.8319L112.95 44.9669L112.42 47.8861Z" fill="#403A3A"/>
<path d="M113.134 52.6434L114.118 52.8164L114.561 50.3838L113.62 50.0054L113.134 52.6434Z" fill="#403A3A"/>
<path d="M111.609 52.3838L112.842 52.5892L113.328 49.9079L112.15 49.3998L111.609 52.3838Z" fill="#403A3A"/>
<path d="M118.226 52.3946L118.464 52.4595L118.659 51.4108L118.421 51.3135L118.226 52.3946Z" fill="#403A3A"/>
<path d="M117.903 52.3081L118.162 52.3838L118.357 51.2918L118.108 51.1837L117.903 52.3081Z" fill="#403A3A"/>
<path d="M117.989 53.7461L118.227 53.7785L118.422 52.7298L118.184 52.6649L117.989 53.7461Z" fill="#403A3A"/>
<path d="M117.643 53.7029L117.913 53.7353L118.107 52.6434L117.848 52.5785L117.643 53.7029Z" fill="#403A3A"/>
<path d="M112.635 54.157L112.819 54.1461C112.97 54.1353 113.111 54.0272 113.132 53.8867L113.208 53.4974C113.23 53.3569 113.132 53.2488 112.981 53.2488H112.797L112.776 53.3893H112.959C113.024 53.3893 113.078 53.4434 113.068 53.4974L112.992 53.8975C112.981 53.9623 112.916 54.0164 112.84 54.0164L112.657 54.0272L112.635 54.157Z" fill="#898779"/>
<path d="M113.414 54.1788L113.587 54.1679C113.727 54.1679 113.857 54.0598 113.879 53.9301L113.944 53.5625C113.965 53.4328 113.868 53.3354 113.738 53.3354H113.565L113.544 53.4652H113.717C113.781 53.4652 113.825 53.5084 113.814 53.5733L113.749 53.9409C113.738 53.995 113.673 54.049 113.608 54.049L113.435 54.0598L113.414 54.1788Z" fill="#898779"/>
<path d="M115.069 54.222L115.199 54.2112C115.307 54.2112 115.415 54.1139 115.426 54.0166L115.48 53.7138C115.502 53.6057 115.426 53.53 115.318 53.53H115.188L115.166 53.6381H115.296C115.35 53.6381 115.383 53.6706 115.372 53.7246L115.318 54.0274C115.307 54.0706 115.264 54.1139 115.21 54.1139H115.08L115.069 54.222Z" fill="#898779"/>
<path d="M115.424 54.2326H115.543C115.64 54.2326 115.738 54.1461 115.759 54.038L115.813 53.7461C115.835 53.6487 115.77 53.5622 115.662 53.5731H115.543L115.521 53.6704H115.64C115.684 53.6704 115.716 53.7028 115.705 53.7569L115.651 54.0488C115.64 54.092 115.597 54.1353 115.554 54.1353H115.435L115.424 54.2326Z" fill="#898779"/>
<path d="M115.954 54.2438H116.073C116.17 54.2438 116.257 54.1573 116.278 54.0708L116.332 53.8005C116.354 53.7032 116.289 53.6275 116.192 53.6384H116.084L116.062 53.7357H116.17C116.213 53.7357 116.246 53.7681 116.235 53.8113L116.181 54.0816C116.17 54.1249 116.127 54.1573 116.084 54.1681H115.965L115.954 54.2438Z" fill="#898779"/>
<path d="M116.279 54.2541H116.387C116.473 54.2541 116.56 54.1784 116.571 54.0811L116.614 53.8216C116.625 53.7351 116.571 53.6594 116.484 53.6594H116.376L116.365 53.7459H116.473C116.517 53.7459 116.538 53.7784 116.527 53.8216L116.484 54.0811C116.473 54.1243 116.441 54.1568 116.398 54.1568H116.29L116.279 54.2541Z" fill="#898779"/>
<path d="M114.441 54.2003L114.582 54.1895C114.701 54.1895 114.809 54.0922 114.83 53.9733L114.884 53.6489C114.906 53.5408 114.83 53.4435 114.711 53.4435H114.571L114.549 53.5516H114.69C114.744 53.5516 114.776 53.5948 114.766 53.6381L114.711 53.9624C114.701 54.0165 114.647 54.0598 114.593 54.0598H114.452L114.441 54.2003Z" fill="#898779"/>
<path d="M116.852 54.276H116.949C117.036 54.276 117.111 54.2003 117.122 54.1246L117.165 53.8868C117.176 53.8003 117.122 53.7462 117.046 53.7462H116.949L116.938 53.8219H117.036C117.079 53.8219 117.101 53.8543 117.09 53.8868L117.046 54.1246C117.036 54.1571 117.003 54.1895 116.96 54.2003H116.863L116.852 54.276Z" fill="#898779"/>
<path d="M117.479 54.3518H117.565C117.641 54.3518 117.706 54.287 117.717 54.2005L117.76 53.9734C117.771 53.8978 117.728 53.8329 117.663 53.8329H117.576L117.565 53.9086H117.652C117.684 53.9086 117.706 53.941 117.695 53.9734L117.652 54.2005C117.641 54.2329 117.609 54.2654 117.576 54.2654H117.49L117.479 54.3518Z" fill="#898779"/>
<path d="M117.901 54.3625H117.977C118.042 54.3625 118.107 54.2976 118.118 54.2219L118.161 54.0057C118.172 53.93 118.129 53.876 118.064 53.876H117.988L117.977 53.9517H118.053C118.085 53.9517 118.107 53.9733 118.096 54.0165L118.053 54.2328C118.042 54.2652 118.02 54.2976 117.988 54.2976H117.912L117.901 54.3625Z" fill="#898779"/>
<path d="M91.1317 39.3668L91.7804 39.3344C92.4075 39.3019 92.9913 38.8154 93.0994 38.2532L93.6292 35.3557C93.6941 34.9881 93.4021 34.707 92.9805 34.7502L91.4128 34.9232C91.0452 34.9665 90.71 35.2476 90.6452 35.5827L90.137 38.3721C90.0289 38.9452 90.483 39.3993 91.1317 39.3668Z" fill="#687B9B"/>
<path d="M91.0341 39.2585L91.6828 39.2261C92.3099 39.1937 92.8937 38.7071 93.0018 38.1449L93.5316 35.2474C93.5965 34.8798 93.3045 34.5987 92.8829 34.642L91.3152 34.815C90.9476 34.8582 90.6124 35.1393 90.5476 35.4745L90.0394 38.2639C89.9313 38.8477 90.3746 39.3018 91.0341 39.2585Z" fill="#D0D2D3"/>
<path d="M90.8398 35.9609C90.7424 36.469 91.1317 36.8691 91.6939 36.8474C92.2561 36.8258 92.7967 36.3933 92.8832 35.8852C92.9696 35.377 92.5912 34.977 92.029 34.9986C91.4668 35.0203 90.9262 35.4527 90.8398 35.9609Z" fill="#687B9B"/>
<path d="M90.9472 35.8855C90.8715 36.3071 91.185 36.6315 91.6499 36.6207C92.1148 36.599 92.5581 36.2531 92.6338 35.8314C92.7095 35.4097 92.3959 35.0854 91.931 35.0962C91.4661 35.107 91.0229 35.4638 90.9472 35.8855Z" fill="#E6E7E8"/>
<path d="M90.4605 38.0476C90.3632 38.5557 90.7525 38.9557 91.3147 38.9341C91.8769 38.9125 92.4175 38.4908 92.504 37.9719C92.5904 37.4529 92.212 37.0637 91.6498 37.0853C91.0876 37.107 90.547 37.5394 90.4605 38.0476Z" fill="#687B9B"/>
<path d="M90.5689 37.9719C90.4932 38.3935 90.8067 38.7179 91.2716 38.7071C91.7365 38.6963 92.1798 38.3395 92.2555 37.9178C92.3312 37.4962 92.0176 37.1718 91.5527 37.1826C91.0878 37.1934 90.6446 37.5502 90.5689 37.9719Z" fill="#E6E7E8"/>
<path d="M119.749 50.8916L118.928 50.9024L118.949 50.8051L119.728 50.7943C119.728 50.7943 119.89 50.8592 119.749 50.8916Z" fill="#B2C5E4"/>
<path d="M80.9134 41.55L81.7134 41.6365L81.7675 41.3446L81.2918 41.3014C81.2918 41.2906 80.7296 41.3014 80.9134 41.55Z" fill="#C1D6F4"/>
<path d="M80.7841 41.3342C80.8489 40.945 82.3193 40.8693 82.3193 40.8693C82.3193 40.8693 97.2718 39.8747 99.5639 39.8098C101.359 39.7557 101.337 39.7341 102.137 39.7557C102.861 39.7773 104.007 39.972 104.624 40.3828C108.386 42.8803 119.803 50.8052 119.803 50.8052C119.803 50.8052 119.836 50.8268 119.825 50.8485C119.814 50.8917 119.771 50.9025 119.706 50.8917C119.619 50.8809 107.435 42.5235 104.418 40.6855C103.899 40.372 102.678 40.1233 102.007 40.0801C101.283 40.0368 101.142 40.0693 99.5098 40.1233C96.1258 40.2206 82.2653 41.1504 82.2653 41.1504C82.2653 41.1504 80.8814 41.2369 80.9138 41.5504C80.9138 41.5504 80.7516 41.4964 80.7841 41.3342Z" fill="#A5B2C4"/>
<path d="M108.527 59.725L108.354 60.5575L101.769 60.59L102.126 58.6006L104.267 58.3844L108.527 59.725Z" fill="#003866"/>
<path opacity="0.3" d="M108.527 59.725L108.354 60.5575L101.769 60.59L102.126 58.6006L104.267 58.3844L108.527 59.725Z" fill="#231F20"/>
<path d="M96.7209 49.3565C96.6884 49.5079 96.8074 49.6268 96.9803 49.6268C97.1533 49.6268 97.3155 49.4971 97.3371 49.3457C97.3696 49.1944 97.2506 49.0754 97.0776 49.0754C96.9047 49.0863 96.7425 49.2052 96.7209 49.3565Z" fill="#4F4848"/>
<path d="M96.8615 49.3567C96.8507 49.4324 96.9047 49.4972 97.002 49.4972C97.0885 49.4972 97.175 49.4324 97.1966 49.3459C97.2074 49.2702 97.1534 49.2053 97.0561 49.2053C96.9588 49.2053 96.8723 49.281 96.8615 49.3567Z" fill="#2D2D2D"/>
<path d="M82.0171 49.8215C81.9846 49.9729 82.1036 50.0918 82.2657 50.0918C82.4279 50.0918 82.5793 49.9621 82.6117 49.8107C82.6442 49.6593 82.5252 49.5404 82.363 49.5404C82.2009 49.5512 82.0387 49.6701 82.0171 49.8215Z" fill="#4F4848"/>
<path d="M82.1577 49.8214C82.1469 49.8971 82.2009 49.962 82.2874 49.962C82.3739 49.962 82.4604 49.8971 82.4712 49.8106C82.482 49.7349 82.428 49.67 82.3415 49.67C82.255 49.67 82.1685 49.7457 82.1577 49.8214Z" fill="#2D2D2D"/>
<path d="M100.645 49.5726C100.613 49.724 100.731 49.8429 100.904 49.8429C101.077 49.8429 101.24 49.7132 101.261 49.5618C101.294 49.4104 101.175 49.2915 101.002 49.2915C100.84 49.2915 100.677 49.4212 100.645 49.5726Z" fill="#4F4848"/>
<path d="M100.796 49.5727C100.785 49.6592 100.839 49.7133 100.937 49.7133C101.023 49.7133 101.11 49.6484 101.131 49.5619C101.142 49.4754 101.088 49.4214 100.991 49.4214C100.894 49.4214 100.807 49.4971 100.796 49.5727Z" fill="#2D2D2D"/>
<path d="M102.127 58.6008L101.976 59.4549L73.3574 59.1089L73.4655 58.4602L102.127 58.6008Z" fill="#003866"/>
<path d="M108.528 59.725L119.588 56.3625L119.534 56.6869L108.355 60.5575L108.528 59.725Z" fill="#003866"/>
<path opacity="0.15" d="M108.528 59.725L119.588 56.3625L119.534 56.6869L108.355 60.5575L108.528 59.725Z" fill="white"/>
<path d="M104.268 58.3844L117.977 55.995L119.588 56.3626L108.527 59.725L104.268 58.3844Z" fill="#003866"/>
<path d="M75.096 58.4059H75.269L76.5231 51.4865C76.5556 51.3027 76.6853 51.1189 76.8583 50.9999C77.0421 50.881 77.2475 50.8269 77.4421 50.8702L78.7071 51.1189C78.9882 51.1729 79.1612 51.4108 79.1071 51.6919L77.9287 58.2437H78.1017L79.2909 51.6811C79.3558 51.3243 79.1396 51.0216 78.7828 50.9567L77.5178 50.708C77.28 50.6648 77.0097 50.7188 76.7826 50.8702C76.5556 51.0216 76.4042 51.2486 76.361 51.4756L75.096 58.4059Z" fill="#727067"/>
<path d="M75.5933 58.265L75.7771 58.211L75.269 54.8053L75.096 54.8594L75.5933 58.265Z" fill="#8C9199"/>
<path d="M71.7129 63.5521L74.1888 50.8268C74.2428 50.5457 74.5347 50.3078 74.8375 50.3078L75.2808 50.297C75.6375 50.2862 75.8754 50.5457 75.8105 50.8808L74.4483 58.4165H74.6212L75.9943 50.8808C76.07 50.47 75.7673 50.1348 75.3132 50.1456L74.8699 50.1565C74.4699 50.1673 74.0915 50.47 74.0158 50.8376L71.5399 63.5629L71.7129 63.5521Z" fill="#727067"/>
<path d="M101.044 49.6375L101.682 49.2482C101.758 49.205 101.801 49.1185 101.801 49.0428C101.79 48.9671 101.736 48.9131 101.65 48.9023C101.098 48.8374 100.071 48.7293 99.4115 48.7077C98.6547 48.6752 97.5843 48.7185 97.0113 48.7509C96.914 48.7509 96.8167 48.805 96.7735 48.8915C96.7194 48.9671 96.7194 49.0644 96.7735 49.1293L96.9681 49.3564L97.1302 49.2482L96.9356 49.0212C96.914 48.9996 96.9248 48.9671 96.9356 48.9563C96.9464 48.9455 96.9573 48.9239 97.0005 48.9239C97.5627 48.9023 98.6331 48.859 99.3791 48.8915C100.028 48.9131 101.044 49.0212 101.595 49.0861C101.606 49.0861 101.617 49.0969 101.617 49.1077C101.617 49.1185 101.617 49.1293 101.606 49.1293L100.968 49.5185L101.044 49.6375Z" fill="#898779"/>
<path d="M80.199 49.7995L80.2315 49.6373C79.8855 49.6157 79.7017 49.5724 79.6801 49.5184C79.6801 49.5184 79.6909 49.5076 79.7125 49.486C79.8963 49.3346 80.5883 49.2805 81.7451 49.3022C81.81 49.3022 81.8532 49.3022 81.8857 49.3022C82.0478 49.3022 82.1992 49.6157 82.2424 49.7671L82.4154 49.7022C82.3938 49.6481 82.2424 49.14 81.9181 49.14C81.8857 49.14 81.8424 49.14 81.7884 49.14C80.9342 49.1184 79.9288 49.1292 79.6152 49.367C79.5612 49.4103 79.5179 49.4643 79.5071 49.5184C79.4747 49.7346 79.8747 49.7779 80.199 49.7995Z" fill="#898779"/>
<path d="M91.2973 50.4432C92.4648 49.2464 92.6039 47.4887 91.608 46.5172C90.6121 45.5457 88.8584 45.7283 87.6909 46.925C86.5234 48.1218 86.3843 49.8795 87.3801 50.851C88.376 51.8225 90.1298 51.64 91.2973 50.4432Z" fill="#F42A41"/>
<path d="M88.9696 51.5297C87.4235 51.5297 86.3964 50.2431 86.6883 48.6646C86.9694 47.0861 88.4614 45.7996 90.0075 45.7996C91.5536 45.7996 92.5807 47.0861 92.2888 48.6646C92.0077 50.2431 90.5156 51.5297 88.9696 51.5297ZM89.9751 46.005C88.5371 46.005 87.1532 47.1943 86.8829 48.6646C86.6126 50.135 87.5641 51.3243 89.002 51.3243C90.44 51.3243 91.8239 50.135 92.0941 48.6646C92.3644 47.2051 91.413 46.005 89.9751 46.005Z" fill="#E6E7E8"/>
<path d="M90.591 50.2864C90.6775 50.2215 90.8721 50.0594 90.9803 49.9404H90.6127L90.5478 50.3188C90.5694 50.308 90.591 50.2972 90.591 50.2864Z" fill="#E6E7E8"/>
<path d="M88.0606 50.5674C88.0931 50.589 88.1363 50.589 88.1796 50.5674C88.2228 50.5458 88.2552 50.5025 88.266 50.4485L88.785 47.605C88.8066 47.5077 88.7418 47.4428 88.6553 47.4428H88.1039L88.2336 47.3239C88.439 47.1293 88.6769 46.9671 88.9256 46.8482L88.9688 46.632C88.1363 46.9779 87.4768 47.778 87.3146 48.6429C87.2389 49.043 87.2714 49.4646 87.4011 49.7781L87.4876 49.3349C87.4335 49.0321 87.4876 48.7402 87.4984 48.6429C87.5633 48.297 87.7147 47.9618 87.9309 47.6591L87.9633 47.6266H88.4823C88.5472 47.6158 88.6012 47.6591 88.6012 47.7347V47.7456L88.5688 47.8969H88.266C88.1579 47.8969 88.0606 47.9834 88.039 48.1023L87.6606 50.0809C87.6498 50.1241 87.6498 50.1674 87.6606 50.2106C87.7795 50.3512 87.9093 50.4701 88.0606 50.5674ZM88.1687 48.2213C88.1796 48.1456 88.2552 48.0807 88.3417 48.0807H88.5255L88.1471 50.189C88.1363 50.2214 88.1255 50.2539 88.1039 50.2755C88.0823 50.2971 88.0606 50.3079 88.039 50.3079H88.0282C87.9849 50.3079 87.9633 50.2971 87.9201 50.2647C87.9093 50.2539 87.8876 50.2322 87.8768 50.2214C87.8552 50.189 87.8444 50.1457 87.8444 50.1025C87.8444 50.0917 87.8444 50.0809 87.8444 50.0809V50.0701C87.8444 50.0592 87.8444 50.0592 87.8444 50.0484L88.1687 48.2213Z" fill="#E6E7E8"/>
<path d="M90.8285 49.7027H91.0447C91.1204 49.7027 91.1853 49.6594 91.2285 49.5945C91.2934 49.4972 91.3582 49.3891 91.4015 49.281C91.4772 49.1188 91.5312 48.9458 91.5853 48.7512L91.5961 48.7188C91.6069 48.6972 91.6069 48.6647 91.6069 48.6431C91.8231 47.4322 91.0447 46.4484 89.8554 46.4484C89.6716 46.4484 89.4878 46.47 89.3148 46.5132L89.2824 46.7187C89.6392 46.6214 90.0068 46.6214 90.3311 46.7187L90.3852 46.7295L89.9419 49.1513H89.6608L90.0068 47.2376C90.0284 47.1187 89.9527 47.0106 89.8338 47.0106H89.4986C89.3473 47.0106 89.1959 47.1403 89.1743 47.3025L89.0986 47.6917C89.0662 47.8539 89.1743 47.9836 89.3257 47.9836H89.3473C89.4121 47.9836 89.477 47.9296 89.4878 47.8539L89.5203 47.6917C89.5095 47.7025 89.5095 47.7025 89.4986 47.7133C89.4554 47.7458 89.4122 47.7566 89.3905 47.7566C89.2608 47.7349 89.2824 47.6268 89.2824 47.5836L89.3148 47.4322C89.3365 47.3133 89.4554 47.2052 89.5851 47.2052H89.6284C89.7473 47.2052 89.823 47.3025 89.8014 47.4214L89.2608 50.4162C89.25 50.4811 89.2175 50.546 89.1527 50.5892C89.0986 50.6325 89.0337 50.6541 88.9689 50.6541H88.9581C88.8391 50.6433 88.7526 50.546 88.7743 50.4162L89.1419 48.3945H88.9689L88.5797 50.5352C88.558 50.6865 88.6337 50.8055 88.7635 50.8379C88.7851 50.8379 88.8067 50.8487 88.8175 50.8487C88.8716 50.8595 88.9581 50.8595 89.0013 50.8595C89.0013 50.8595 89.0337 50.8595 89.0662 50.8595C89.2284 50.8487 89.3689 50.719 89.4013 50.5568L89.6176 49.3459H89.8987L89.6392 50.773C89.6824 50.7622 89.7149 50.7514 89.7581 50.7406L90.4825 46.7727L90.5798 46.816C90.6231 46.8376 90.6663 46.8592 90.6987 46.8808L90.7312 46.9025L90.0609 50.6108C90.1041 50.5892 90.1473 50.5676 90.1798 50.546C90.2014 50.427 90.223 50.2865 90.2338 50.2216V50.2L90.8177 46.9565L90.9258 47.0538C91.1312 47.2376 91.2826 47.4863 91.3691 47.7566L91.4015 47.8647H91.2826C91.1096 47.8647 90.9474 48.0052 90.915 48.189L90.6771 49.5189C90.6663 49.5729 90.6771 49.6162 90.7095 49.6486C90.742 49.6919 90.7744 49.7027 90.8285 49.7027ZM91.088 48.2323C91.1096 48.135 91.2069 48.0485 91.3042 48.0485H91.4339L91.4447 48.0917C91.4772 48.2107 91.4339 48.4809 91.3907 48.7512C91.3258 49.0756 91.2177 49.3999 91.1204 49.5297C91.088 49.5729 91.0447 49.5945 91.0015 49.5945H90.9798C90.9474 49.5945 90.915 49.5837 90.8933 49.5513C90.8717 49.5297 90.8717 49.4972 90.8717 49.454L91.088 48.2323Z" fill="#E6E7E8"/>
<path d="M104.268 58.3843L102.127 58.6005L73.4655 58.46L78.6334 58.2113L97.716 58.3843L99.8458 58.4167L104.268 58.3843Z" fill="#003866"/>
<path d="M101.976 59.4548L99.7059 71.9855C99.7059 71.9855 96.7651 71.4665 95.2515 74.3857L79.8989 76.0291L73.985 72.6666C73.985 72.6666 74.385 70.5476 71.7361 69.9205L73.3579 59.098L101.976 59.4548Z" fill="#003866"/>
<path d="M100.711 66.4392L99.7059 71.9856C99.7059 71.9856 96.7651 71.4666 95.2515 74.3857L79.8989 76.0291L73.985 72.6667C73.985 72.6667 74.385 70.5476 71.7361 69.9205L72.3848 65.6067L100.711 66.4392Z" fill="#F42A41"/>
<path opacity="0.1" d="M83.3906 68.5582C83.823 68.342 84.2988 68.2663 84.7312 68.3204C84.1474 68.9799 81.9526 71.8125 79.8552 76.0291L73.9628 72.6667L83.3906 68.5582Z" fill="white"/>
<path opacity="0.1" d="M85.6503 68.6015L95.2402 74.3857L81.9635 75.8128L79.8552 76.029C81.4553 72.5909 84.2015 68.9366 84.7853 68.2771C85.1097 68.3203 85.4016 68.4285 85.6503 68.6015Z" fill="#231F20"/>
<path d="M95.6398 65.5092C95.4668 66.4715 96.202 67.2607 97.3048 67.2607C98.3967 67.2607 99.4347 66.4823 99.6076 65.52C99.7806 64.547 99.0346 63.7685 97.9318 63.7685C96.8399 63.7577 95.8127 64.5362 95.6398 65.5092Z" fill="#403A3A"/>
<path d="M95.6397 65.5092C95.4667 66.4714 96.1478 67.2607 97.1749 67.2607C98.202 67.2607 99.1751 66.4822 99.3589 65.5092C99.5319 64.5361 98.8399 63.7577 97.8128 63.7577C96.7857 63.7577 95.8127 64.5361 95.6397 65.5092Z" fill="#4F4848"/>
<path d="M73.1845 64.5254C73.0116 65.4552 73.5954 66.2229 74.4819 66.2229C75.3685 66.2229 76.2334 65.466 76.3956 64.5254C76.5686 63.5848 75.9848 62.828 75.0982 62.828C74.2008 62.8388 73.3467 63.5956 73.1845 64.5254Z" fill="#403A3A"/>
<path d="M73.1838 64.5254C73.0108 65.466 73.5514 66.2229 74.373 66.2229C75.2055 66.2229 76.0164 65.466 76.1894 64.5254C76.3624 63.5848 75.8218 62.828 74.9893 62.828C74.1568 62.8388 73.3459 63.5956 73.1838 64.5254Z" fill="#4F4848"/>
<path d="M95.9863 63.9741L97.4027 63.9849C98.3757 63.8767 99.1217 64.5146 99.0244 65.3688C99.0244 65.3796 99.0244 65.4012 99.0136 65.412C98.9055 66.1472 98.3433 66.8175 97.5108 66.9364L96.3647 67.0338L95.9863 63.9741Z" fill="#7F5D4F"/>
<path d="M92.0393 66.0605C91.7906 67.4444 92.8177 68.5688 94.353 68.5797C95.8882 68.5905 97.3478 67.4661 97.5965 66.0714C97.8451 64.6767 96.8072 63.5522 95.2612 63.5522C93.7259 63.5631 92.288 64.6875 92.0393 66.0605Z" fill="#403A3A"/>
<path d="M92.0398 66.0605C91.7911 67.4444 92.7209 68.5688 94.1264 68.5797C95.5428 68.5905 96.8942 67.4661 97.1429 66.0714C97.3915 64.6767 96.4509 63.5522 95.0346 63.5522C93.6291 63.5631 92.2885 64.6875 92.0398 66.0605Z" fill="#4F4848"/>
<path d="M71.6811 65.9417L74.5245 65.9309C75.1408 65.8552 75.703 65.2498 75.8436 64.5254C75.9949 63.6821 75.5084 63.0226 74.8057 63.1091H72.0054L71.6811 65.9417Z" fill="#7F5D4F"/>
<path d="M68.7954 64.6766C68.5792 65.8875 69.3144 66.8605 70.4604 66.8714C71.6065 66.8714 72.7093 65.8983 72.9255 64.6874C73.1417 63.4765 72.3957 62.4926 71.2497 62.4926C70.1145 62.4818 69.0117 63.4657 68.7954 64.6766Z" fill="#403A3A"/>
<path d="M68.7947 64.6767C68.5784 65.8876 69.2055 66.8607 70.2002 66.8715C71.2056 66.8715 72.1895 65.8984 72.4166 64.6875C72.6436 63.4766 72.0057 62.4928 71.0002 62.4928C69.9947 62.482 69.0109 63.4658 68.7947 64.6767Z" fill="#4F4848"/>
<path opacity="0.25" d="M87.0334 61.8442L87.5956 61.6712L88.0172 59.3575H87.4875L87.0334 61.8442Z" fill="#231F20"/>
<path d="M97.7042 56.3086L97.3258 58.3736L96.7528 58.4493L97.142 56.3086H97.7042Z" fill="#1C558A"/>
<path d="M97.1425 56.3086L94.9694 56.3302L94.591 58.4385L96.7533 58.4493L97.1425 56.3086Z" fill="#1C558A"/>
<path opacity="0.2" d="M97.7042 56.3086L97.3258 58.3736L96.7528 58.4493L97.142 56.3086H97.7042Z" fill="#231F20"/>
<path opacity="0.1" d="M97.1425 56.3086L94.9694 56.3302L94.591 58.4385L96.7533 58.4493L97.1425 56.3086Z" fill="white"/>
<path d="M95.0339 57.3573C94.9582 57.7681 95.2718 58.1033 95.7259 58.0925C96.1908 58.0925 96.6232 57.7465 96.6989 57.3357C96.7746 56.9248 96.4611 56.5897 96.007 56.6005C95.5421 56.6113 95.1096 56.9464 95.0339 57.3573Z" fill="#F3B800"/>
<path d="M78.3736 56.3844L78.0276 58.3089L77.2383 58.3954L77.5951 56.3952L78.3736 56.3844Z" fill="#0A4982"/>
<path d="M77.5951 56.3954L75.7788 56.4062L75.4112 58.4064L77.2384 58.3955L77.5951 56.3954Z" fill="#0A4982"/>
<path opacity="0.1" d="M77.5951 56.3954L75.7788 56.4062L75.4112 58.4064L77.2384 58.3955L77.5951 56.3954Z" fill="white"/>
<path d="M75.8106 57.4115C75.7349 57.8115 75.9944 58.1358 76.3728 58.1358C76.762 58.1358 77.1296 57.8007 77.2053 57.4006C77.281 57.0006 77.0215 56.6763 76.6431 56.6763C76.2538 56.6763 75.8863 57.0006 75.8106 57.4115Z" fill="#F3B800"/>
<path d="M97.9754 58.5355L100.873 55.0541L100.732 54.9677L97.77 58.5355H97.9754Z" fill="#B2C5E4"/>
<path d="M99.7595 64.9685H101.197C101.835 64.9685 102.441 64.5036 102.549 63.9306L105.014 50.3187C105.122 49.7457 104.679 49.2916 104.041 49.3024L102.895 49.3241C102.257 49.3349 101.651 49.8106 101.543 50.3728L100.062 58.5139H100.246L101.727 50.3728C101.814 49.8971 102.322 49.497 102.862 49.4862L104.008 49.4646C104.549 49.4538 104.917 49.8322 104.83 50.3187L102.365 63.9198C102.279 64.3955 101.77 64.7847 101.23 64.7847H99.7919L99.7595 64.9685Z" fill="#898779"/>
<path d="M103.067 65.1413C103.294 65.1413 103.521 65.0656 103.716 64.925C103.921 64.7737 104.062 64.5791 104.105 64.352L106.949 50.005C106.97 49.8969 107.046 49.7996 107.165 49.7347C107.273 49.6698 107.403 49.659 107.511 49.7023L108.062 49.9077C108.246 49.9726 108.343 50.1455 108.3 50.3293L106.538 58.6975H106.722L108.484 50.3293C108.538 50.0699 108.408 49.8428 108.16 49.7455L107.608 49.5401C107.446 49.486 107.251 49.5077 107.089 49.5941C106.916 49.6915 106.797 49.8428 106.765 50.005L103.921 64.352C103.889 64.525 103.781 64.6872 103.619 64.8061C103.456 64.925 103.262 64.9791 103.067 64.9791L102.278 64.9467L102.235 65.1088L103.024 65.1413C103.046 65.1413 103.056 65.1413 103.067 65.1413Z" fill="#727065"/>
<path opacity="0.1" d="M102.127 58.6008L101.976 59.4549L73.3247 59.2495L73.4653 58.4602L102.127 58.6008Z" fill="white"/>
<path d="M87.0345 61.844H85.3803L85.975 58.5464L87.6399 58.5248L87.0345 61.844Z" fill="#1C558A"/>
<path d="M85.9958 59.3249C85.9418 59.6384 86.158 59.8871 86.4824 59.8871C86.8067 59.8871 87.1202 59.6276 87.1743 59.3249C87.2284 59.0114 87.0121 58.7627 86.6878 58.7627C86.3634 58.7627 86.0607 59.0114 85.9958 59.3249Z" fill="#003866"/>
<path d="M85.704 60.9899C85.6499 61.3034 85.8661 61.5521 86.1905 61.5521C86.5148 61.5521 86.8284 61.3034 86.8824 60.9899C86.9365 60.6764 86.7203 60.4277 86.3959 60.4277C86.0607 60.4169 85.758 60.6764 85.704 60.9899Z" fill="#003866"/>
<path d="M86.2013 59.3247C86.158 59.5842 86.3094 59.7896 86.558 59.7788C86.7959 59.7788 87.0337 59.5733 87.077 59.3139C87.1202 59.0544 86.9689 58.849 86.7202 58.8598C86.4824 58.8598 86.2445 59.076 86.2013 59.3247Z" fill="#F42A41"/>
<path d="M85.8988 60.9791C85.8555 61.2386 86.0069 61.444 86.2555 61.4332C86.4934 61.4332 86.7313 61.2278 86.7745 60.9683C86.8178 60.7088 86.6664 60.5034 86.4177 60.5142C86.1799 60.525 85.942 60.7304 85.8988 60.9791Z" fill="#F42A41"/>
<path d="M120.128 69.3365C120.041 69.7366 119.771 69.8663 119.479 69.8447C119.187 69.8231 118.982 69.6825 119.079 69.2825C119.166 68.8824 119.814 68.4067 119.814 68.4067C119.814 68.4067 120.214 68.9365 120.128 69.3365Z" fill="#006747"/>
<path d="M118.864 72.9044C118.831 73.3044 118.582 73.4666 118.28 73.4882C117.988 73.5207 117.75 73.4017 117.782 73.0017C117.815 72.6017 118.399 72.0503 118.399 72.0503C118.399 72.0503 118.896 72.5044 118.864 72.9044Z" fill="#006747"/>
<path d="M56.9996 121.633L56.6212 120.541C56.6212 120.541 60.8269 115.795 66.7517 119.622L66.3732 121.265H64.838C64.838 121.265 62.3513 119.276 58.1456 121.546L56.9996 121.633Z" fill="#3C354C"/>
<path d="M70.7742 176.686C72.1117 176.686 73.196 175.65 73.196 174.372C73.196 173.094 72.1117 172.058 70.7742 172.058C69.4366 172.058 68.3524 173.094 68.3524 174.372C68.3524 175.65 69.4366 176.686 70.7742 176.686Z" fill="#3C354C"/>
<path d="M52.8049 175.551C54.0946 175.551 55.1402 174.554 55.1402 173.324C55.1402 172.093 54.0946 171.096 52.8049 171.096C51.5151 171.096 50.4695 172.093 50.4695 173.324C50.4695 174.554 51.5151 175.551 52.8049 175.551Z" fill="#3C354C"/>
<path d="M58.1671 120.541H56.6318V135.515H58.1671V120.541Z" fill="#3C354C"/>
<path d="M66.384 120.541H64.8488V135.515H66.384V120.541Z" fill="#3C354C"/>
<path d="M56.0591 132.964C56.0591 132.964 50.8911 133.148 50.1343 138.802C49.3667 144.456 50.1343 170.729 50.1343 170.729C50.1343 170.729 56.0591 174.924 63.3353 174.372C70.6116 173.821 82.2557 171.821 82.2557 171.821V141.018C82.2557 136.423 78.2338 132.672 73.4226 132.931C73.3145 132.931 73.1847 132.942 73.0766 132.953L56.0591 132.964Z" fill="#3C354C"/>
<path d="M63.5084 177.821C64.9773 177.821 66.1681 176.684 66.1681 175.28C66.1681 173.877 64.9773 172.74 63.5084 172.74C62.0395 172.74 60.8488 173.877 60.8488 175.28C60.8488 176.684 62.0395 177.821 63.5084 177.821Z" fill="#3C354C"/>
<path d="M81.9745 176.037C83.4076 176.037 84.5693 174.929 84.5693 173.561C84.5693 172.194 83.4076 171.085 81.9745 171.085C80.5414 171.085 79.3797 172.194 79.3797 173.561C79.3797 174.929 80.5414 176.037 81.9745 176.037Z" fill="#3C354C"/>
<g opacity="0.1">
<path opacity="0.1" d="M66.049 135.515H80.0068C78.3743 133.817 76.0173 132.79 73.4225 132.931C73.3144 132.931 73.1847 132.942 73.0766 132.953H56.059C56.059 132.953 50.8911 133.136 50.1343 138.791C49.3666 144.445 50.1343 170.718 50.1343 170.718C50.1343 170.718 54.3724 173.702 60.081 174.307V141.494C60.0702 138.196 62.7514 135.515 66.049 135.515Z" fill="black"/>
</g>
<path d="M38.3399 75.557C41.5482 73.9891 42.9163 70.1956 41.3955 67.0838C39.8748 63.9721 36.0412 62.7206 32.8329 64.2885C29.6246 65.8564 28.2566 69.65 29.7773 72.7617C31.298 75.8734 35.1316 77.1249 38.3399 75.557Z" fill="#FCB381"/>
<path d="M31.3206 73.1644C31.3206 73.1644 33.4505 78.127 29.9042 78.8081C29.288 79.5865 30.7151 80.4515 30.3691 81.3704L43.0944 82.1597L40.478 77.835C40.478 77.835 38.6184 75.3376 38.8455 73.5104C39.0725 71.6832 31.3206 73.1644 31.3206 73.1644Z" fill="#FCB381"/>
<path d="M35.7862 65.9313C35.7862 65.9313 39.2675 63.8879 39.0621 62.8175C38.8567 61.7363 38.9756 60.6768 38.7161 60.7957C38.4566 60.9255 37.9917 60.3092 37.9917 60.3092C37.9917 60.3092 37.6674 60.2984 37.6025 60.5038C37.5377 60.7092 36.8781 59.6821 36.8781 59.6821C36.8781 59.6821 36.5538 59.3362 36.5538 59.6713C36.5538 60.0065 36.4889 59.8659 36.1646 59.5308C35.8402 59.1848 35.0618 59.228 35.0618 59.228C35.0618 59.228 32.6724 60.5579 32.0237 60.2119C31.375 59.8551 27.1801 62.4067 26.6071 63.5311C26.0341 64.6555 23.2231 69.0558 24.8664 70.7749C26.5098 72.4939 31.0291 75.8455 31.3534 76.5267C31.6886 77.2078 32.5211 76.624 32.4454 75.8239C32.3697 75.0239 34.0347 73.1967 33.8401 72.7858C33.6455 72.375 33.1373 69.5964 33.7644 69.1315C34.5861 68.5369 36.3376 69.7045 36.3916 69.1748C36.4457 68.645 35.7862 65.9313 35.7862 65.9313Z" fill="#2F2E41"/>
<path d="M44.8894 172.75C44.8894 172.75 45.5489 174.123 47.2788 175.431C48.1005 176.048 50.998 176.469 52.5224 176.199C54.0469 175.918 56.8255 178.696 54.5983 179.529C52.3819 180.361 39.8945 182.675 38.5106 181.886C36.305 180.632 38.2295 174.123 38.2295 174.123L44.8894 172.75Z" fill="#2F2E41"/>
<path d="M22.5424 171.669C22.5424 171.669 22.337 173.129 23.8831 174.642C24.7696 175.507 28.4888 176.361 30.0349 176.35C31.5809 176.34 33.8406 179.54 31.5161 179.983C29.1916 180.426 16.5203 181.875 15.2554 179.561C13.6877 176.686 16.3041 171.864 16.3041 171.864L22.5424 171.669Z" fill="#2F2E41"/>
<path d="M21.8612 94.7657C21.8612 94.7657 18.6718 102.95 21.8612 110.853C25.0506 118.757 26.4345 120.011 26.4345 120.011L27.4076 109.61L26.294 108.594C26.294 108.594 25.6128 105.437 26.1642 103.566C26.7156 101.696 25.8831 95.8685 25.8831 95.8685L21.8612 94.7657Z" fill="#FCB381"/>
<path d="M25.083 84.8301L24.1207 85.5977C23.3207 86.2356 22.8125 87.1762 22.726 88.2033C22.6287 89.3169 22.4557 90.7008 22.1422 91.1657C21.5908 91.9982 20.6178 96.3012 21.1692 96.4418C21.7205 96.5823 26.7155 97.4148 26.7155 97.4148L26.9966 91.036L25.083 84.8301Z" fill="#079D49"/>
<path d="M25.083 84.8301L24.1207 85.5977C23.3207 86.2356 22.8125 87.1762 22.726 88.2033C22.6287 89.3169 22.4557 90.7008 22.1422 91.1657C21.5908 91.9982 20.6178 96.3012 21.1692 96.4418C21.7205 96.5823 26.7155 97.4148 26.7155 97.4148L26.9966 91.036L25.083 84.8301Z" fill="#006747"/>
<path d="M45.7229 112.518C45.7229 112.518 49.7448 121.676 49.334 126.109C48.9231 130.552 45.7229 149.278 45.7229 149.278C45.7229 149.278 46.1337 173.41 44.8904 173.41C43.647 173.41 37.679 175.626 37.679 174.102C37.679 172.577 36.4357 135.958 36.4357 135.958C36.4357 135.958 30.8136 152.424 30.1109 153.667C29.4189 154.911 25.0618 174.102 23.5266 174.102C22.0021 174.102 15.7638 172.718 16.1747 171.745C16.5855 170.772 21.3102 149.137 23.9374 143.58C26.5755 138.034 26.0133 117.081 26.0133 117.081L30.4568 107.372L45.7229 112.518Z" fill="#3F3D56"/>
<path opacity="0.1" d="M23.7853 92.2032C22.996 89.7165 23.4501 87.0028 25.007 84.9053C26.7585 82.5592 28.9749 79.813 29.9155 79.5752C31.1372 79.2725 33.4725 78.5913 34.6402 78.2562C35.1051 78.1156 35.5808 78.094 36.0673 78.1697C37.2133 78.3643 39.3865 78.7643 40.1865 79.1643C41.3001 79.7157 45.4626 80.6888 45.5924 82.3538C45.7329 84.0188 44.4788 99.9659 45.1815 101.501C45.8735 103.026 48.2304 117.589 47.1276 117.319C46.014 117.037 39.8297 119.762 36.7268 120C32.8346 120.292 25.7638 119.816 25.7638 119.816C25.6341 118.702 25.4503 117.589 25.2124 116.486C24.8016 114.54 26.326 109.826 26.326 109.826C26.326 109.826 26.1855 98.8631 25.6341 97.6198C25.3205 96.9603 24.4988 94.4412 23.7853 92.2032Z" fill="black"/>
<path d="M23.7853 91.4358C22.996 88.9492 23.4501 86.2354 25.007 84.138C26.7585 81.7919 28.1856 79.2079 30.6615 78.6132C31.8832 78.3213 33.4833 77.824 34.6402 77.4888C35.1051 77.3483 35.5808 77.3266 36.0673 77.4023C37.2133 77.5969 39.7324 77.651 42.3272 77.9862C43.7003 78.1591 45.4626 79.9214 45.6032 81.5864C45.7437 83.2514 44.4896 99.1986 45.1923 100.734C45.8843 102.258 48.2412 116.822 47.1384 116.551C46.0248 116.27 39.8406 118.995 36.7376 119.233C32.8454 119.524 25.7746 119.049 25.7746 119.049C25.6449 117.935 25.4611 116.822 25.2232 115.719C24.8124 113.773 26.3368 109.059 26.3368 109.059C26.3368 109.059 26.1963 98.0958 25.6449 96.8525C25.3205 96.1929 24.4988 93.6847 23.7853 91.4358Z" fill="#006747"/>
<path d="M45.8521 77.143C45.8521 77.143 53.1932 71.7263 53.8527 70.5911C54.5122 69.4559 66.6537 59.1632 66.6537 59.1632L68.3403 61.931C68.3403 61.931 58.5666 76.2672 57.0854 77.0349C55.615 77.8133 49.2145 83.5218 49.2145 83.5218L45.8521 77.143Z" fill="#FCB381"/>
<path d="M45.2792 88.9164L41.0302 78.7427C41.0302 78.7427 47.9821 74.5802 49.1606 74.764C50.339 74.9586 52.7717 83.0349 52.4689 83.3376C52.1554 83.6511 46.5766 85.381 45.2792 88.9164Z" fill="#006747"/>
<path d="M25.0501 86.3219C25.0501 86.3219 25.0068 85.738 24.3581 85.1434C24.3581 85.1434 24.1959 83.9001 25.0501 82.7432C25.9042 81.5864 26.9961 81.5756 26.9961 81.5756C26.9961 81.5756 27.8611 82.0945 28.1638 83.1973C28.4665 84.3001 26.5204 87.23 25.0501 86.3219Z" fill="#DA924E"/>
<path d="M39.0741 81.9107C39.0741 81.9107 38.9768 79.3592 39.712 78.3429C40.4472 77.3266 42.8907 76.8833 43.1069 77.1536C43.3231 77.4131 41.6798 80.6025 42.7609 83.5324L41.4203 86.2894L39.0741 81.9107Z" fill="#DA924E"/>
<path d="M41.2781 81.5864C41.2781 81.5864 27.569 81.4566 25.5472 84.4515C23.7849 87.0571 26.0013 88.268 27.9042 90.1708C28.9529 91.2196 24.3363 102.107 25.9148 110.951C26.7473 115.621 45.9812 114.065 46.3272 111.61C46.6732 109.156 47.5165 97.3822 43.5594 90.1708C43.5594 90.1708 43.8838 82.8514 41.2781 81.5864Z" fill="#DA924E"/>
<path opacity="0.15" d="M41.2785 81.5863C41.2785 81.5863 27.6342 81.4133 25.4503 84.5595C23.6555 87.1327 26.6504 88.9166 27.9045 90.1707C28.9532 91.2195 24.3367 102.107 25.9152 110.951C26.7477 115.621 45.9816 114.064 46.3276 111.61C46.6735 109.156 47.5168 97.3821 43.5598 90.1707C43.5598 90.1707 43.8841 82.8513 41.2785 81.5863Z" fill="black"/>
<path d="M40.1219 81.9863C40.1219 81.9863 27.8075 82.3972 25.8181 84.8298C23.8288 87.2624 25.7749 90.1599 25.4397 91.933C25.2992 92.6574 22.7801 102.118 24.3586 110.962C25.1911 115.632 44.425 114.075 44.7709 111.621C45.1169 109.167 45.9602 97.3929 42.0032 90.1816C42.014 90.1707 42.7275 83.2513 40.1219 81.9863Z" fill="#DA924E"/>
<path opacity="0.15" d="M27.4188 101.837C27.4188 101.837 27.2783 106.734 28.1865 107.383C29.0946 108.032 40.0144 107.999 40.5874 107.383C41.1604 106.767 40.1225 100.528 40.1225 100.528C40.1225 100.528 42.1659 107.232 41.0307 108.496C39.8955 109.761 27.8946 109.188 27.408 108.496C26.9107 107.805 27.4188 101.837 27.4188 101.837Z" fill="black"/>
<path opacity="0.15" d="M28.1862 101.036L40.1223 100.755C40.1223 100.755 31.181 100.128 28.1862 101.036Z" fill="black"/>
<path opacity="0.15" d="M33.4631 102.907C33.8512 102.907 34.1658 102.592 34.1658 102.204C34.1658 101.816 33.8512 101.501 33.4631 101.501C33.0749 101.501 32.7603 101.816 32.7603 102.204C32.7603 102.592 33.0749 102.907 33.4631 102.907Z" fill="black"/>
<path opacity="0.15" d="M28.5321 89.7382C28.5321 89.7382 28.4997 93.1871 29.1484 93.6304C29.7971 94.0737 37.4733 93.9007 37.8734 93.4682C38.2734 93.0358 37.4625 88.6462 37.4625 88.6462C37.4625 88.6462 38.987 93.3385 38.2085 94.2359C37.4301 95.144 28.9754 94.8954 28.6186 94.4197C28.2618 93.9439 28.5321 89.7382 28.5321 89.7382Z" fill="black"/>
<path opacity="0.15" d="M29.061 89.1653L37.4617 88.8085C37.4617 88.8085 31.1585 88.4842 29.061 89.1653Z" fill="black"/>
<path opacity="0.15" d="M32.7921 90.4087C33.0667 90.4087 33.2894 90.1861 33.2894 89.9114C33.2894 89.6367 33.0667 89.4141 32.7921 89.4141C32.5174 89.4141 32.2947 89.6367 32.2947 89.9114C32.2947 90.1861 32.5174 90.4087 32.7921 90.4087Z" fill="black"/>
<path d="M45.0958 90.4085L45.6904 96.1387L46.631 104.885C46.631 104.885 48.1338 93.2087 46.4256 87.0569C46.4364 87.0569 44.8903 88.6462 45.0958 90.4085Z" fill="#4C495E"/>
<path opacity="0.15" d="M45.0954 90.4085L45.69 96.1387L46.6306 104.885C46.6306 104.885 48.1334 93.2087 46.4252 87.0569C46.436 87.0569 44.9332 88.5489 45.0954 90.4085Z" fill="black"/>
<path d="M45.0958 90.4085L45.6904 96.1387L46.631 104.885C46.631 104.885 48.1338 93.2087 46.4256 87.0569C46.4364 87.0569 45.0093 88.257 45.0958 90.4085Z" fill="#DA924E"/>
<path d="M65.8544 59.5847C65.8544 59.5847 67.0978 54.8384 68.3087 54.3735C69.5196 53.9086 69.9412 53.9194 70.1791 53.5626C70.4169 53.2166 72.6982 51.0219 72.7631 51.7571C72.8279 52.4922 71.1954 54.1356 71.2711 54.6654C71.3467 55.1952 73.2712 56.4601 72.536 57.7143C71.4873 59.509 68.4709 61.8984 67.5951 62.7849C66.7194 63.6931 64.5246 61.5632 65.8544 59.5847Z" fill="#FCB381"/>
</svg>
