<svg width="167" height="155" viewBox="0 0 167 155" fill="none" xmlns="http://www.w3.org/2000/svg">
<path opacity="0.5" d="M36.0327 18.1777C19.9177 22.7214 -5.04246 40.8962 0.95524 60.2828C2.77273 66.0987 6.22594 71.2481 8.70984 76.8218C15.5557 92.0886 12.5872 105.72 7.92227 120.866C4.22672 132.922 6.52886 142.918 18.8272 148.249C37.0626 156.185 122.727 159.336 159.319 134.981C177.191 123.107 153.382 99.9644 162.287 76.7006C183.734 20.9038 100.008 0.18454 36.0327 18.1777Z" fill="#E9E9E9"/>
<path d="M128.664 142.07H67.2935C62.568 142.07 58.7513 138.253 58.7513 133.527V9.02955C58.7513 4.30408 62.568 0.487305 67.2935 0.487305H128.664C133.389 0.487305 137.206 4.30408 137.206 9.02955V133.527C137.146 138.253 133.329 142.07 128.664 142.07Z" stroke="#403D56" stroke-width="0.274" stroke-miterlimit="10"/>
<path d="M125.15 135.708H70.7467C66.0212 135.708 62.2045 131.892 62.2045 127.166V15.2697C62.2045 10.5442 66.0212 6.72742 70.7467 6.72742H125.15C129.876 6.72742 133.692 10.5442 133.692 15.2697V127.166C133.692 131.892 129.876 135.708 125.15 135.708Z" stroke="#403D56" stroke-width="0.274" stroke-miterlimit="10"/>
<path opacity="0.07" d="M133.692 145.583H61.114C60.1447 145.583 59.3571 144.796 59.3571 143.826C59.3571 142.857 60.1447 142.07 61.114 142.07H133.692C134.662 142.07 135.449 142.857 135.449 143.826C135.449 144.796 134.662 145.583 133.692 145.583Z" fill="black"/>
<path d="M93.5259 50.8318H69.6562V64.4023H93.5259V50.8318Z" fill="#1C558A"/>
<path opacity="0.2" d="M126.543 50.8318H102.674V64.4023H126.543V50.8318Z" fill="#5A5773"/>
<path opacity="0.2" d="M93.5259 70.2183H69.6562V83.7888H93.5259V70.2183Z" fill="#5A5773"/>
<path opacity="0.2" d="M126.543 70.2183H102.674V83.7888H126.543V70.2183Z" fill="#5A5773"/>
<path opacity="0.2" d="M93.5259 31.1423H69.6562V44.7128H93.5259V31.1423Z" fill="#5A5773"/>
<path opacity="0.2" d="M126.543 31.1423H102.674V44.7128H126.543V31.1423Z" fill="#5A5773"/>
<path opacity="0.2" d="M93.5259 89.6049H69.6562V103.175H93.5259V89.6049Z" fill="#5A5773"/>
<path opacity="0.2" d="M126.543 89.6049H102.674V103.175H126.543V89.6049Z" fill="#5A5773"/>
<path d="M122.182 148.976L120.97 149.218C121.152 148.491 127.816 137.284 136.479 134.315C139.993 133.164 143.083 130.862 145.142 127.833C146.112 126.379 147.021 124.803 147.748 123.168L148.596 123.531C147.869 125.167 146.96 126.803 145.93 128.317C143.749 131.468 140.478 133.952 136.782 135.163C128.482 138.071 122.242 148.855 122.182 148.976Z" fill="#545562"/>
<path d="M153.564 121.532C152.594 122.501 148.051 123.471 148.051 123.471C148.051 123.471 149.202 118.927 150.11 118.018C151.019 117.109 152.655 117.109 153.624 118.079C154.593 119.048 154.533 120.563 153.564 121.532Z" fill="#079D49"/>
<path d="M151.019 129.771C149.686 130.014 145.324 128.378 145.324 128.378C145.324 128.378 148.717 125.167 150.05 124.925C151.382 124.682 152.655 125.53 152.958 126.863C153.2 128.136 152.352 129.468 151.019 129.771Z" fill="#079D49"/>
<path d="M141.568 138.616C140.296 138.132 137.388 134.557 137.388 134.557C137.388 134.557 141.932 133.527 143.204 133.952C144.476 134.376 145.203 135.769 144.779 137.102C144.355 138.435 142.961 139.101 141.629 138.677C141.689 138.616 141.629 138.616 141.568 138.616Z" fill="#079D49"/>
<path d="M133.026 143.705C131.693 143.524 128.179 140.434 128.179 140.434C128.179 140.434 132.481 138.616 133.813 138.859C135.146 139.041 136.116 140.313 135.873 141.706C135.692 143.039 134.419 144.008 133.026 143.766C133.026 143.705 133.026 143.705 133.026 143.705Z" fill="#079D49"/>
<path d="M141.508 124.804C141.508 126.197 143.991 130.135 143.991 130.135C143.991 130.135 146.475 126.197 146.475 124.804C146.475 123.41 145.324 122.32 143.991 122.32C142.598 122.32 141.508 123.471 141.508 124.804Z" fill="#079D49"/>
<path d="M131.511 130.922C131.935 132.195 135.449 135.224 135.449 135.224C135.449 135.224 136.6 130.741 136.176 129.408C135.752 128.136 134.359 127.348 133.087 127.772C131.814 128.257 131.087 129.59 131.511 130.922Z" fill="#079D49"/>
<path d="M122.606 138.132C122.787 139.465 125.756 143.1 125.756 143.1C125.756 143.1 127.695 138.859 127.513 137.526C127.331 136.193 126.119 135.224 124.726 135.406C123.333 135.587 122.424 136.799 122.606 138.132Z" fill="#079D49"/>
<g opacity="0.15">
<path opacity="0.15" d="M153.564 121.532C152.594 122.501 148.051 123.471 148.051 123.471C148.051 123.471 149.202 118.927 150.11 118.018C151.019 117.109 152.655 117.109 153.624 118.079C154.593 119.048 154.533 120.563 153.564 121.532Z" fill="#010101"/>
</g>
<g opacity="0.15">
<path opacity="0.15" d="M151.019 129.771C149.686 130.014 145.324 128.378 145.324 128.378C145.324 128.378 148.717 125.167 150.05 124.925C151.382 124.682 152.655 125.53 152.958 126.863C153.2 128.136 152.352 129.468 151.019 129.771Z" fill="#010101"/>
</g>
<g opacity="0.15">
<path opacity="0.15" d="M141.568 138.616C140.296 138.132 137.388 134.557 137.388 134.557C137.388 134.557 141.932 133.527 143.204 133.952C144.476 134.376 145.203 135.769 144.779 137.102C144.355 138.435 142.961 139.101 141.629 138.677C141.689 138.616 141.629 138.616 141.568 138.616Z" fill="#010101"/>
</g>
<g opacity="0.15">
<path opacity="0.15" d="M133.026 143.705C131.693 143.524 128.179 140.434 128.179 140.434C128.179 140.434 132.481 138.616 133.813 138.859C135.146 139.041 136.116 140.313 135.873 141.706C135.692 143.039 134.419 144.008 133.026 143.766C133.026 143.705 133.026 143.705 133.026 143.705Z" fill="#010101"/>
</g>
<g opacity="0.15">
<path opacity="0.15" d="M141.508 124.804C141.508 126.197 143.991 130.135 143.991 130.135C143.991 130.135 146.475 126.197 146.475 124.804C146.475 123.41 145.324 122.32 143.991 122.32C142.598 122.32 141.508 123.471 141.508 124.804Z" fill="#010101"/>
</g>
<g opacity="0.15">
<path opacity="0.15" d="M131.511 130.922C131.935 132.195 135.449 135.224 135.449 135.224C135.449 135.224 136.6 130.741 136.176 129.408C135.752 128.136 134.359 127.348 133.087 127.772C131.814 128.257 131.087 129.59 131.511 130.922Z" fill="#010101"/>
</g>
<g opacity="0.15">
<path opacity="0.15" d="M122.606 138.132C122.787 139.465 125.756 143.1 125.756 143.1C125.756 143.1 127.695 138.859 127.513 137.526C127.331 136.193 126.119 135.224 124.726 135.406C123.333 135.587 122.424 136.799 122.606 138.132Z" fill="#010101"/>
</g>
<path d="M123.151 148.734L122.06 148.976C122.121 148.491 123.393 135.769 130.118 129.589C132.844 127.106 134.722 123.773 135.389 120.138C135.692 118.382 135.873 116.625 135.873 114.868H136.843C136.843 116.685 136.661 118.503 136.358 120.32C135.631 124.137 133.632 127.651 130.784 130.256C124.363 136.193 123.151 148.613 123.151 148.734Z" fill="#545562"/>
<path d="M140.599 110.991C140.114 112.263 136.297 114.989 136.297 114.989C136.297 114.989 135.51 110.385 135.994 109.112C136.479 107.84 137.933 107.174 139.145 107.659C140.417 108.143 141.083 109.597 140.599 110.809C140.599 110.869 140.599 110.93 140.599 110.991Z" fill="#079D49"/>
<path d="M141.568 119.472C140.417 120.26 135.752 120.502 135.752 120.502C135.752 120.502 137.57 116.201 138.66 115.413C139.811 114.626 141.326 114.929 142.113 116.019C142.901 117.17 142.659 118.685 141.568 119.472Z" fill="#079D49"/>
<path d="M136.54 131.346C135.146 131.468 131.027 129.347 131.027 129.347C131.027 129.347 134.783 126.56 136.116 126.439C137.509 126.318 138.66 127.348 138.781 128.681C138.902 130.074 137.933 131.286 136.54 131.346Z" fill="#079D49"/>
<path d="M130.784 139.525C129.451 139.828 125.029 138.495 125.029 138.495C125.029 138.495 128.24 135.103 129.573 134.8C130.905 134.436 132.238 135.224 132.602 136.496C132.965 137.829 132.178 139.162 130.905 139.525C130.784 139.525 130.784 139.525 130.784 139.525Z" fill="#079D49"/>
<path d="M130.905 118.806C131.451 120.078 135.328 122.683 135.328 122.683C135.328 122.683 135.994 118.079 135.389 116.807C134.783 115.534 133.329 114.989 132.117 115.595C130.905 116.201 130.36 117.655 130.905 118.806Z" fill="#079D49"/>
<path d="M124.241 128.439C125.15 129.469 129.633 130.801 129.633 130.801C129.633 130.801 128.906 126.197 127.998 125.167C127.149 124.137 125.514 124.016 124.484 124.864C123.454 125.712 123.333 127.348 124.181 128.378C124.181 128.439 124.181 128.439 124.241 128.439Z" fill="#079D49"/>
<path d="M119.031 138.677C119.758 139.828 123.878 141.948 123.878 141.948C123.878 141.948 123.939 137.284 123.212 136.133C122.485 134.981 120.97 134.618 119.819 135.345C118.607 136.011 118.304 137.526 119.031 138.677Z" fill="#079D49"/>
<path d="M41.8485 128.075C41.8485 128.075 35.4268 118.563 33.0034 115.353C32.337 114.444 28.0962 110.264 28.0962 110.264C28.0962 110.264 25.8546 110.082 24.4612 110.264C23.4919 110.385 21.3109 112.445 21.3109 112.445C21.3109 112.445 25.6123 118.866 27.8539 120.866C30.8225 123.531 38.577 131.104 38.577 131.104C38.577 131.104 42.7573 131.528 41.8485 128.075Z" fill="#E0A67A"/>
<path d="M56.5096 125.652C56.449 125.349 56.3884 125.106 56.3278 124.803C56.1461 124.137 55.9038 123.471 55.6008 122.804C55.2373 122.077 54.7527 121.35 54.2074 120.805C53.6622 120.26 52.9958 119.836 52.2688 119.593C51.1177 119.169 49.8454 119.29 48.5732 119.411C42.0908 120.078 33.7304 122.865 27.6115 125.349C26.8845 129.287 27.6721 131.71 29.7319 135.103C30.3378 136.132 31.4888 136.738 32.1553 137.768C34.1545 140.858 34.7603 144.493 35.6085 147.946C35.9114 149.339 36.2749 150.793 36.3961 152.247C37.1836 152.369 38.0318 152.429 38.8799 152.55C42.7572 152.974 46.9981 153.338 51.4812 153.641C53.8439 143.463 56.8125 127.59 56.5096 125.652Z" fill="#4C495E"/>
<path opacity="0.1" d="M56.5096 125.652C56.449 125.349 56.3884 125.106 56.3278 124.803C56.1461 124.137 55.9038 123.471 55.6008 122.804C55.2373 122.077 54.7527 121.35 54.2074 120.805C53.6622 120.26 52.9958 119.836 52.2688 119.593C51.1177 119.169 49.8454 119.29 48.5732 119.411C42.0908 120.078 33.7304 122.865 27.6115 125.349C26.8845 129.287 27.6721 131.71 29.7319 135.103C30.3378 136.132 31.4888 136.738 32.1553 137.768C34.1545 140.858 34.7603 144.493 35.6085 147.946C35.9114 149.339 36.2749 150.793 36.3961 152.247C37.1836 152.369 38.0318 152.429 38.8799 152.55C42.7572 152.974 46.9981 153.338 51.4812 153.641C53.8439 143.463 56.8125 127.59 56.5096 125.652Z" fill="black"/>
<path d="M56.3278 124.803C56.1461 124.076 55.9037 123.41 55.6008 122.804C55.2373 122.077 54.7527 121.35 54.2074 120.805C53.4804 120.381 52.6323 120.502 51.36 121.411C46.0893 121.411 40.8792 122.017 35.7902 123.349C35.0026 123.531 34.0939 123.834 33.7304 124.682C33.6698 124.864 33.6093 124.985 33.6093 125.167C33.6093 125.47 33.6093 125.833 33.6093 126.136C33.6698 127.651 33.9122 129.105 34.2756 130.559C34.6997 132.013 35.4873 133.346 36.6384 134.194C37.2442 134.618 37.9106 134.921 38.3953 135.466C39.4858 136.859 38.577 138.98 38.9405 140.737C39.0617 141.221 39.2435 141.706 39.3646 142.191C39.607 143.221 39.6675 144.25 39.6069 145.28C39.5464 147.098 39.6069 149.037 39.6069 150.854C39.1829 151.339 39.0011 151.944 38.9405 152.55C42.8178 152.974 47.0586 153.338 51.5418 153.641C52.3293 153.701 53.1775 153.701 54.0257 153.762C54.6315 150.309 55.2373 146.916 55.8431 143.463C56.0249 142.433 56.1461 141.464 56.1461 140.434C56.2066 138.737 57.176 127.348 56.3278 124.803Z" fill="#4C495E"/>
<path fill-rule="evenodd" clip-rule="evenodd" d="M25.7941 89.1201C25.7941 89.1201 27.6116 97.9047 27.7933 101.116C27.9751 104.326 28.0963 108.264 28.1568 108.931C28.7021 115.474 22.8861 113.656 21.6139 112.626C20.3416 111.596 19.2511 90.8165 19.1905 89.4837C19.13 88.1509 23.6131 85.8487 25.7941 89.1201Z" fill="#E0A67A"/>
<path d="M45.1806 66.341C45.2411 67.7344 45.6652 69.0671 45.7864 70.4605C42.8178 73.4291 37.1836 72.8839 33.6093 69.3095C34.7603 68.5825 35.3661 67.2497 35.669 65.9775C36.0931 64.2811 36.2749 62.5848 36.0931 60.8279C36.0931 60.7068 36.0932 60.6462 36.0326 60.525C35.9114 59.8586 35.4873 58.8892 35.6085 58.344C35.7296 57.617 36.3961 57.7988 37.0019 57.7988C38.8194 57.9199 40.6369 58.1622 42.4543 58.5257C42.939 58.5863 47.4827 59.7374 47.5433 59.6163C46.7557 60.8885 46.0893 62.2819 45.544 63.6753C45.3017 64.5234 45.1806 65.4323 45.1806 66.341Z" fill="#E0A67A"/>
<path d="M85.2865 61.5549C84.923 62.0395 84.4989 62.4637 84.0142 62.8272C83.7113 63.0695 83.4084 63.3118 83.0449 63.5542C82.4391 64.0388 81.7726 64.2811 80.9851 64.4023C80.0157 64.4628 77.9559 63.9176 77.3501 63.0695C77.1078 62.6454 76.9866 62.1607 76.9866 61.676C76.9866 61.0096 77.1078 60.3432 77.3501 59.7374C77.7136 58.7075 78.2589 57.7382 78.9253 56.89C79.6523 55.9207 80.4398 54.9514 81.4697 54.3456C81.8332 54.1638 82.1967 53.9821 82.5602 53.8609C83.1661 53.6186 83.8325 53.3156 84.4383 53.0733C84.5595 53.0127 84.6806 53.0127 84.8018 52.9521C85.2865 52.9521 85.4076 53.7397 85.1047 54.1638C84.4989 55.012 83.2266 55.2542 82.8631 56.2236C83.469 56.2236 84.0142 56.6478 84.196 57.2536C84.196 57.4353 84.2566 57.5565 84.3777 57.6776C84.5595 57.7988 84.8018 57.7383 84.9835 57.8594C85.347 58.0412 85.1653 58.5257 85.2259 58.9498C85.2864 59.2527 85.4076 59.6163 85.5894 59.9192C85.7711 60.4038 85.65 61.0702 85.2865 61.5549Z" fill="#E0A67A"/>
<path d="M43.3026 63.7359C48.5222 63.7359 52.7535 59.5045 52.7535 54.2849C52.7535 49.0653 48.5222 44.8341 43.3026 44.8341C38.083 44.8341 33.8516 49.0653 33.8516 54.2849C33.8516 59.5045 38.083 63.7359 43.3026 63.7359Z" fill="#E0A67A"/>
<path d="M77.1683 62.4636C77.1683 62.4636 71.8976 72.6416 70.2619 76.3372C69.7772 77.3671 68.4444 82.2742 68.4444 82.2742C68.4444 82.2742 69.1108 84.9399 70.4436 85.4246C71.6553 85.9093 73.7757 85.6064 74.5633 85.4246C74.745 85.4246 74.8662 85.3034 74.9267 85.1217C75.3508 83.9706 77.1077 79.1846 77.5318 78.1547C78.9252 74.3985 81.3485 63.8571 81.3485 63.8571C81.3485 63.8571 79.7734 59.9797 77.1683 62.4636Z" fill="#E0A67A"/>
<path d="M52.0265 48.2872C52.5717 47.6814 51.8447 44.7128 50.936 43.7435C50.0272 42.7742 49.0579 43.3194 45.12 41.4413C41.1822 39.5633 37.0019 42.5924 37.0019 42.5924C36.5173 41.9259 32.9429 43.3194 32.3976 44.4705C31.8524 45.6821 30.0349 51.801 31.186 54.6484C32.3371 57.4958 34.7604 61.0096 34.8815 62.0395C34.8815 62.0395 35.245 64.0993 36.3355 64.0993C37.426 64.0993 40.2128 64.8869 41.1822 64.8869C42.1515 64.8869 45.4835 64.5839 46.8769 63.1905C47.6645 62.403 50.9966 57.6169 50.9966 57.6169C50.9966 57.6169 52.4506 55.2543 52.39 53.9215C52.39 52.6492 53.117 51.9222 53.117 51.3164C53.1775 49.9836 51.4812 48.8325 52.0265 48.2872Z" fill="#2F2E41"/>
<path fill-rule="evenodd" clip-rule="evenodd" d="M54.5104 75.5496C54.5104 75.5496 63.7796 75.3679 66.8693 76.3373C69.959 77.246 73.7151 78.4575 74.321 78.6393C74.9268 78.821 74.9268 84.7582 73.5334 85.6063C72.14 86.4545 54.7527 82.8802 53.4805 82.5167C52.2688 82.0926 50.6937 76.519 54.5104 75.5496Z" fill="#E0A67A"/>
<path d="M33.4881 67.9161C33.4881 67.9161 37.9712 72.2175 44.5747 69.1278C44.5747 69.1278 54.6315 71.43 56.5701 73.4292C58.5088 75.3679 57.1154 86.0305 56.5096 87.5451C55.9037 89.0597 53.9045 102.448 55.5402 106.326C57.176 110.203 55.8431 109.476 55.8431 111.96C55.8431 114.444 57.176 114.686 56.5701 115.292C55.9643 115.898 57.6001 122.198 57.6001 124.864C57.6001 124.864 54.9344 125.894 49.7849 125.894C44.6959 125.894 40.4551 123.652 36.3355 125.773C33.064 127.469 28.8838 127.893 27.3692 128.014C27.0663 128.014 26.824 127.772 26.824 127.469C26.8846 126.379 27.0663 124.077 27.0663 123.289C27.0663 122.198 25.9758 119.836 26.2181 118.503C26.3999 117.473 26.7634 113.111 26.8845 112.202C26.9451 111.96 26.824 111.718 26.6422 111.536C25.9152 110.93 25.5517 110.021 25.5517 109.112C25.5517 105.053 25.4306 93.4216 23.6131 87.3633C21.3715 79.9116 20.3416 75.1861 21.4927 73.7322C21.4927 73.5504 26.6422 69.3095 33.4881 67.9161Z" fill="#006747"/>
<path d="M54.4498 72.1569C54.4498 72.1569 64.0219 74.2773 66.1423 74.762C68.2627 75.2466 69.4743 75.5496 69.4743 75.5496C69.4743 75.5496 73.594 81.9713 70.8071 87.4844C70.8071 87.4844 61.538 89.4836 56.1461 88.7567C56.1461 88.7567 57.2972 80.0932 54.4498 72.1569Z" fill="#006747"/>
<path d="M21.4927 73.5503C21.4927 73.5503 17.7366 82.153 17.7366 94.0878C17.7366 94.0878 22.8255 96.9958 27.7933 94.0878C27.7933 94.0878 29.732 80.8202 27.0057 74.7619C27.0057 74.7619 25.7941 71.551 21.4927 73.5503Z" fill="#006747"/>
</svg>
